<?xml version="1.0" standalone="no"?>
<!DOCTYPE svg PUBLIC "-//W3C//DTD SVG 1.1//EN" "http://www.w3.org/Graphics/SVG/1.1/DTD/svg11.dtd" >
<!--
2013-9-30: Created.
-->
<svg>
<metadata>
Created by iconfont
</metadata>
<defs>

<font id="gisIconfont" horiz-adv-x="1024" >
  <font-face
    font-family="gisIconfont"
    font-weight="500"
    font-stretch="normal"
    units-per-em="1024"
    ascent="896"
    descent="-128"
  />
    <missing-glyph />
    
    <glyph glyph-name="WGSjingweidu" unicode="&#58883;" d="M204.8 486.4L0 384l204.8-102.4V486.4zM819.2 281.6l204.8 102.4-204.8 102.4v-204.8zM200.874667 418.133333h623.701333v-68.266666H200.874667zM409.6 76.8l102.4-204.8 102.4 204.8H409.6zM614.4 691.2L512 896 409.6 691.2h204.8zM477.866667 696.576h68.266666v-623.701333h-68.266666z"  horiz-adv-x="1024" />

    
    <glyph glyph-name="Webmoqiatuo" unicode="&#58884;" d="M512 827.733333A443.733333 443.733333 0 1 0 68.266667 384 444.245333 444.245333 0 0 0 512 827.733333m0 68.266667a512 512 0 1 1 512-512A512 512 0 0 1 512 896zM512 896h-62.72a162.133333 162.133333 0 0 1-17.408-25.6L469.333333 813.397333A76.8 76.8 0 0 0 512 827.733333V896zM370.944 811.264c-0.853333-1.024-1.621333-2.048-2.389333-3.157333l-0.512-0.597334H366.933333a400.213333 400.213333 0 0 1-24.490666-38.656v-0.853333l-0.426667-0.768c-4.181333-7.594667-8.533333-15.530667-12.117333-23.722667L388.693333 708.266667a361.984 361.984 0 0 0 36.693334 61.44l-54.442667 41.557333z m-75.008-152.405333v-20.650667c0-0.938667 0-1.792-0.682667-2.645333 0-0.853333-0.426667-1.706667-0.597333-2.56-2.986667-11.776-5.632-23.722667-8.533333-35.925334L341.333333 562.688a710.4 710.4 0 0 0 19.456 75.434667l-65.109333 20.736z m-34.133333-166.912c-2.986667-27.648-4.864-56.064-5.461334-85.333334l68.266667-1.450666c0.597333 26.709333 2.304 53.418667 5.034667 79.36l-67.84 7.253333z m64.341333-166.314667l-68.266667-4.096 1.024-14.933333v-2.133334c1.706667-21.418667 4.096-42.666667 7.082667-62.976v-3.242666l67.498667 10.154666c-3.84 25.6-6.570667 52.138667-8.533334 78.848zM349.866667 169.728l-66.133334-17.066667v-2.389333q3.328-12.544 6.912-24.576V121.429333q6.485333-20.48 13.909334-39.68l63.658666 24.576A656.554667 656.554667 0 0 0 349.866667 169.728z m55.04-140.544l-58.965334-34.133333c4.266667-7.253333 8.533333-14.08 12.970667-20.736h0.938667a313.258667 313.258667 0 0 1 34.133333-41.984l51.370667 42.069333a271.530667 271.530667 0 0 0-40.704 54.528z m85.333333-85.333333l-22.698667-64.426667h55.381334a133.290667 133.290667 0 0 1 27.648 5.461333l-20.053334 65.194667a64 64 0 0 0-41.130666 1.024z m126.805333 80.725333a258.474667 258.474667 0 0 0-41.130666-53.248l47.018666-48.810667a325.802667 325.802667 0 0 1 52.224 67.157334l-58.453333 35.242666z m56.234667 139.690667a635.050667 635.050667 0 0 0-23.722667-73.216l63.402667-25.173334c3.413333 8.533333 6.741333 17.066667 9.813333 26.453334v6.826666c3.925333 12.202667 7.509333 24.832 10.922667 37.717334l-66.048 17.066666z m24.576 155.562666c-1.792-26.709333-4.693333-53.162667-8.533333-78.762666L756.309333 230.4c1.877333 11.690667 3.498667 23.466667 4.864 35.498667V271.189333c1.450667 13.482667 2.645333 27.050667 3.498667 40.874667l-68.266667 4.522667zM762.88 486.4l-68.266667-6.826667c2.645333-25.6 4.181333-52.736 4.608-79.36L768 401.066667v8.96V445.781333c-0.768 11.776-1.706667 23.381333-2.901333 34.816z m-33.109333 166.826667l-65.194667-20.138667a748.714667 748.714667 0 0 0 18.944-75.690667l67.413333 13.056c-2.56 13.141333-5.376 25.6-8.533333 38.570667v3.669333c-3.413333 13.653333-7.168 26.88-11.178667 39.765334z m-73.216 153.6l-55.125334-40.192a369.237333 369.237333 0 0 0 36.010667-62.293334l62.293333 28.586667a525.226667 525.226667 0 0 1-14.421333 28.586667l-0.512 0.853333v0.597333a382.72 382.72 0 0 1-22.357333 35.84V800.597333c0 0.682667-0.938667 1.28-1.450667 1.962667zM517.888 896l-3.072-68.266667a81.066667 81.066667 0 0 0 42.666667-16.384L597.333333 867.157333c-3.413333 2.389333-6.912 4.608-10.410666 6.741334H568.32l-1.024 0.426666h-0.768l-1.536 0.682667h-8.874667L554.666667 888.917333 553.813333 889.173333h-2.133333L548.693333 890.794667h-1.109333A132.266667 132.266667 0 0 1 517.888 896z"  horiz-adv-x="1024" />

    
    <glyph glyph-name="biandianzhan" unicode="&#58885;" d="M493.381818 709.818182H27.927273a27.927273 27.927273 0 0 1-27.927273-27.927273v-781.963636a27.927273 27.927273 0 0 1 27.927273-27.927273h465.454545a27.927273 27.927273 0 0 1 27.927273 27.927273V681.890909a27.927273 27.927273 0 0 1-27.927273 27.927273z m-46.545454-735.418182a27.927273 27.927273 0 0 0-27.927273-27.927273H102.4a27.927273 27.927273 0 0 0-27.927273 27.927273V607.418182a27.927273 27.927273 0 0 0 27.927273 27.927273h316.509091a27.927273 27.927273 0 0 0 27.927273-27.927273zM251.345455 514.327273L121.018182 253.672727h83.781818l139.636364 260.654546H251.345455zM307.2 328.145455L158.254545 67.490909h90.484364L400.290909 328.145455H307.2zM167.563636 328.145455l-46.545454-74.472728h232.727273l46.545454 74.472728H167.563636zM186.181818 896v-130.327273h37.236364v-55.854545h111.709091v55.854545h37.236363V896H186.181818zM1089.163636 709.818182H623.709091a27.927273 27.927273 0 0 1-27.927273-27.927273v-781.963636a27.927273 27.927273 0 0 1 27.927273-27.927273h465.454545a27.927273 27.927273 0 0 1 27.927273 27.927273V681.890909a27.927273 27.927273 0 0 1-27.927273 27.927273z m-46.545454-735.418182a27.927273 27.927273 0 0 0-27.927273-27.927273H698.181818a27.927273 27.927273 0 0 0-27.927273 27.927273V607.418182a27.927273 27.927273 0 0 0 27.927273 27.927273h316.509091a27.927273 27.927273 0 0 0 27.927273-27.927273zM847.127273 514.327273L716.8 253.672727h83.781818l139.636364 260.654546H847.127273zM902.981818 328.145455L754.036364 67.490909h90.484363L996.072727 328.145455H902.981818zM763.345455 328.145455l-46.545455-74.472728h232.727273l46.545454 74.472728H763.345455zM781.963636 896v-130.327273h37.236364v-55.854545h111.709091v55.854545h37.236364V896H781.963636z"  horiz-adv-x="1117" />

    
    <glyph glyph-name="biaohao" unicode="&#58886;" d="M917.333376 896h-810.666667A23.722667 23.722667 0 0 1 85.333376 870.4v-972.8a23.722667 23.722667 0 0 1 21.333333-25.6h810.666667a23.722667 23.722667 0 0 1 21.333333 25.6V870.4a23.722667 23.722667 0 0 1-21.333333 25.6z m-35.584-930.133333a23.722667 23.722667 0 0 0-21.333333-25.6H163.584043a23.722667 23.722667 0 0 0-21.333334 25.6V802.133333a23.722667 23.722667 0 0 0 21.333334 25.6h696.832a23.722667 23.722667 0 0 0 21.333333-25.6zM315.136043 344.661333h262.485333c18.346667 0 32.768 17.066667 32.768 39.338667s-14.421333 39.338667-32.768 39.338667H315.136043c-18.346667 0-32.768-17.066667-32.768-39.338667s14.421333-39.338667 32.768-39.338667zM315.136043 187.733333c-18.346667 0-32.768-17.066667-32.768-39.338666s14.421333-39.253333 32.768-39.253334h328.106666c18.346667 0 32.768 17.066667 32.768 39.253334S661.589376 187.733333 643.242709 187.733333M513.365376 626.432m-42.666667 0a42.666667 42.666667 0 1 1 85.333334 0 42.666667 42.666667 0 1 1-85.333334 0ZM320.768043 626.432m-42.666667 0a42.666667 42.666667 0 1 1 85.333333 0 42.666667 42.666667 0 1 1-85.333333 0ZM705.877376 626.432m-42.666667 0a42.666667 42.666667 0 1 1 85.333334 0 42.666667 42.666667 0 1 1-85.333334 0Z"  horiz-adv-x="1024" />

    
    <glyph glyph-name="huhao" unicode="&#58888;" d="M917.333376 896h-810.666667A23.722667 23.722667 0 0 1 85.333376 870.4v-972.8a23.722667 23.722667 0 0 1 21.333333-25.6h810.666667a23.722667 23.722667 0 0 1 21.333333 25.6V870.4a23.722667 23.722667 0 0 1-21.333333 25.6z m-35.584-930.133333a23.722667 23.722667 0 0 0-21.333333-25.6H163.584043a23.722667 23.722667 0 0 0-21.333334 25.6V802.133333a23.722667 23.722667 0 0 0 21.333334 25.6h696.832a23.722667 23.722667 0 0 0 21.333333-25.6zM315.136043 344.661333h262.485333c18.346667 0 32.768 17.066667 32.768 39.338667s-14.421333 39.338667-32.768 39.338667H315.136043c-18.346667 0-32.768-17.066667-32.768-39.338667s14.421333-39.338667 32.768-39.338667zM708.864043 659.114667H315.136043c-18.346667 0-32.768-17.066667-32.768-39.253334S296.789376 580.266667 315.136043 580.266667h393.728c18.346667 0 32.768 17.066667 32.768 39.338666s-14.421333 39.253333-32.768 39.253334zM315.136043 187.733333c-18.346667 0-32.768-17.066667-32.768-39.338666s14.421333-39.253333 32.768-39.253334h328.106666c18.346667 0 32.768 17.066667 32.768 39.253334S661.589376 187.733333 643.242709 187.733333"  horiz-adv-x="1024" />

    
    <glyph glyph-name="fadianchang" unicode="&#58889;" d="M1089.163636 709.818182H27.927273a27.927273 27.927273 0 0 1-27.927273-27.927273v-781.963636a27.927273 27.927273 0 0 1 27.927273-27.927273h1061.236363a27.927273 27.927273 0 0 1 27.927273 27.927273V681.890909a27.927273 27.927273 0 0 1-27.927273 27.927273z m-46.545454-735.418182a27.927273 27.927273 0 0 0-27.927273-27.927273H102.4a27.927273 27.927273 0 0 0-27.927273 27.927273V607.418182a27.927273 27.927273 0 0 0 27.927273 27.927273h912.290909a27.927273 27.927273 0 0 0 27.927273-27.927273zM130.327273 579.490909h111.709091v-37.236364H130.327273zM875.054545 579.490909h111.709091v-37.236364H875.054545zM549.236364 514.327273L418.909091 253.672727h83.781818l139.636364 260.654546H549.236364zM605.090909 328.145455L456.145455 67.490909h90.484363L698.181818 328.145455H605.090909zM465.454545 328.145455l-46.545454-74.472728h232.727273l46.545454 74.472728H465.454545zM186.181818 765.672727h37.236364v-55.854545h111.709091v55.854545h37.236363V896H186.181818zM744.727273 896v-130.327273h37.236363v-55.854545h111.709091v55.854545h37.236364V896z"  horiz-adv-x="1117" />

    
    <glyph glyph-name="peidianxianlu" unicode="&#58890;" d="M998.4 896H25.6a25.6 25.6 0 0 1-25.6-25.6v-972.8a25.6 25.6 0 0 1 25.6-25.6h972.8a25.6 25.6 0 0 1 25.6 25.6V870.4a25.6 25.6 0 0 1-25.6 25.6z m-42.666667-930.133333a25.6 25.6 0 0 0-25.6-25.6H93.866667a25.6 25.6 0 0 0-25.6 25.6V802.133333a25.6 25.6 0 0 0 25.6 25.6h836.266666a25.6 25.6 0 0 0 25.6-25.6zM170.666667 674.133333v-68.266666h98.048a141.397333 141.397333 0 0 0 0 68.266666z m379.818666 0a141.397333 141.397333 0 0 0 0-68.266666H853.333333v68.266666zM409.6 742.4a102.4 102.4 0 1 1 102.4-102.4 102.4 102.4 0 0 1-102.4 102.4z m0-136.533333a34.133333 34.133333 0 1 0 34.133333 34.133333 34.133333 34.133333 0 0 0-34.133333-34.133333zM541.781333 426.666667H170.666667v-68.266667h371.114666a141.397333 141.397333 0 0 0 0 68.266667z m281.6 0a141.397333 141.397333 0 0 0 0-68.266667H853.333333v68.266667zM682.666667 494.933333a102.4 102.4 0 1 1 102.4-102.4 102.4 102.4 0 0 1-102.4 102.4z m0-136.533333a34.133333 34.133333 0 1 0 34.133333 34.133333 34.133333 34.133333 0 0 0-34.133333-34.133333zM302.848 170.666667H170.666667v-68.266667h132.181333a141.397333 141.397333 0 0 0 0 68.266667z m281.6 0a141.397333 141.397333 0 0 0 0-68.266667H853.333333v68.266667zM443.733333 238.933333a102.4 102.4 0 1 1 102.4-102.4 102.4 102.4 0 0 1-102.4 102.4z m0-136.533333a34.133333 34.133333 0 1 0 34.133334 34.133333 34.133333 34.133333 0 0 0-34.133334-34.133333z"  horiz-adv-x="1024" />

    
    <glyph glyph-name="peidianzhanfang" unicode="&#58891;" d="M512 896L0 384l102.314667-0.085333L512 793.6l410.368-409.685333L1024 384 512 896zM153.6 452.266667h68.266667v-580.266667h-68.266667zM802.133333 452.266667h68.266667v-580.266667h-68.266667zM154.453333-59.733333h716.8v-68.266667h-716.8zM512 218.112m-136.533333 0a136.533333 136.533333 0 1 1 273.066666 0 136.533333 136.533333 0 1 1-273.066666 0Z"  horiz-adv-x="1024" />

    
    <glyph glyph-name="quanxuan" unicode="&#58892;" d="M782.848 630.954667A1540.608 1540.608 0 0 1 426.666667 322.389333L287.402667 431.274667l-61.44-49.493334 239.701333-243.968C506.794667 243.541333 637.696 450.133333 797.44 597.333333l-14.592 34.133334M512 827.733333A443.733333 443.733333 0 1 0 68.266667 384 444.245333 444.245333 0 0 0 512 827.733333m0 68.266667a512 512 0 1 1 512-512A512 512 0 0 1 512 896z"  horiz-adv-x="1024" />

    
    <glyph glyph-name="sousuo" unicode="&#58893;" d="M443.770314 896a443.770314 443.770314 0 1 1 443.770314-443.770314A443.770314 443.770314 0 0 1 443.770314 896z m0-819.268272a375.497958 375.497958 0 1 0 375.497958 375.497958 375.497958 375.497958 0 0 0-375.497958-375.497958zM759.529961 187.674306l-51.204267-51.204267 267.627635-264.470039L1024.08534-76.881073 759.529961 187.674306z"  horiz-adv-x="1024" />

    
    <glyph glyph-name="shudianxianlu" unicode="&#58894;" d="M844.8 554.666667h68.266667v-682.666667h-68.266667zM204.885333 896h68.266667v-1024h-68.266667zM100.608 810.666667A415.317333 415.317333 0 0 0 0 870.4V896h20.821333a588.8 588.8 0 0 1 94.890667-51.2c64.170667-25.088 98.048-26.88 98.048-26.88v-34.730667s-31.232-2.389333-113.152 27.477334zM100.608 615.253333A418.133333 418.133333 0 0 0 0 674.133333v25.6h20.821333a588.8 588.8 0 0 1 94.890667-51.2c64.170667-25.088 98.048-26.88 98.048-26.88v-34.730666s-31.232-1.877333-113.152 28.330666zM256 807.850667s78.250667-139.605333 276.821333-228.778667C712.789333 498.176 844.8 503.978667 844.8 503.978667v-36.010667s-154.197333-7.168-343.125333 83.882667C324.949333 637.098667 262.144 733.866667 262.144 733.866667zM256 587.434667s21.162667-54.442667 222.634667-136.533334C696.064 361.642667 844.8 386.645333 844.8 386.645333v-36.010666a965.461333 965.461333 0 0 0-379.392 68.266666C307.797333 483.072 256 529.066667 256 529.066667zM966.485333 447.914667a509.866667 509.866667 0 0 1 57.514667-26.624V392.533333h-12.544a517.461333 517.461333 0 0 0-55.210667 22.698667 536.490667 536.490667 0 0 0-61.013333 41.898667v39.338666a593.92 593.92 0 0 1 71.253333-48.554666zM966.485333 335.445333a509.866667 509.866667 0 0 1 57.514667-26.624v-28.501333h-12.544a537.6 537.6 0 0 0-55.210667 22.698667 545.109333 545.109333 0 0 0-61.013333 41.984V384a593.92 593.92 0 0 1 71.253333-48.554667z"  horiz-adv-x="1024" />

    
    <glyph glyph-name="yingyeting" unicode="&#58895;" d="M191.719643-126.743999l123.267566 390.437008L0 533.015595h396.447871L538.286315 896l159.243035-362.984405H1076.57263l-297.044331-269.143158 127.03557-391.872437-366.214123 245.548274z m348.002102 310.950062l271.206589-180.505345L718.701945 284.147889l222.491677 200.332223H661.195024L540.43946 759.813562l-107.657263-275.33345H139.685299l234.961976-199.614508-88.817242-282.69003z"  horiz-adv-x="1076" />

    
    <glyph glyph-name="zhushangkaiguan" unicode="&#58897;" d="M1024-102.4V870.4a25.6 25.6 0 0 1-25.6 25.6H25.6a25.6 25.6 0 0 1-25.6-25.6v-972.8a25.6 25.6 0 0 1 25.6-25.6h972.8a25.6 25.6 0 0 1 25.6 25.6z m-930.133333 42.666667a25.6 25.6 0 0 0-25.6 25.6V802.133333a25.6 25.6 0 0 0 25.6 25.6h836.266666a25.6 25.6 0 0 0 25.6-25.6v-836.266666a25.6 25.6 0 0 0-25.6-25.6zM750.933333 379.136h273.066667v-68.266667H750.933333zM0 379.136h341.333333v-68.266667H0zM312.302933 372.736L733.525333 569.258667l28.859734-61.866667L341.162667 310.869333z"  horiz-adv-x="1024" />

    
    <glyph glyph-name="peidiandianlan" unicode="&#58898;" d="M228.64 896h228.64v-87.84H228.64zM1334.88 808.16H1024V896h310.88zM896 808.16H585.12V896H896zM1462.88 896h228.64v-87.84H1462.88zM1920 340.16h-274.24v87.68H1920z m-457.12 0H1097.12v87.68h365.76z m-548.64 0H548.64v87.68h365.6z m-548.48 0H0v87.68h365.76zM228.64-40.16h228.64V-128H228.64zM1334.88-128H1024v87.84h310.88zM896-128H585.12v87.84H896zM1462.88-40.16h228.64V-128H1462.88z"  horiz-adv-x="1920" />

    
    <glyph glyph-name="huming" unicode="&#58899;" d="M512 827.733333a230.4 230.4 0 1 0-230.4-230.4A230.4 230.4 0 0 0 512 827.733333m0 68.266667a298.666667 298.666667 0 1 1 298.666667-298.666667A298.666667 298.666667 0 0 1 512 896zM1006.933333-128h-68.266666c0 225.877333-191.402667 409.6-426.666667 409.6S85.333333 97.877333 85.333333-128H17.066667c0 263.509333 221.866667 477.866667 494.933333 477.866667s494.933333-214.357333 494.933333-477.866667z"  horiz-adv-x="1024" />

    
    <glyph glyph-name="xingqudianchaxun" unicode="&#58896;" d="M511.154988 576.512a106.069333 106.069333 0 1 0-75.349334-31.317333 106.069333 106.069333 0 0 0 75.349334 31.317333m0 63.829333a170.666667 170.666667 0 1 1 120.746666-49.749333 170.666667 170.666667 0 0 1-120.746666 50.090667zM803.677654 771.925333a406.869333 406.869333 0 0 1-585.045333 0 430.421333 430.421333 0 0 1 0-598.442666l292.522667-299.52 292.522666 299.52a430.421333 430.421333 0 0 1 0 598.442666z m-44.032-556.288l-248.490666-255.488-248.490667 255.488a364.714667 364.714667 0 0 0 0 507.733334 346.197333 346.197333 0 0 0 496.981333 0 364.714667 364.714667 0 0 0 0-507.733334z"  horiz-adv-x="1024" />

    
    <glyph glyph-name="daoluchaxun" unicode="&#58949;" d="M642.363674-82.314979h-74.427253V115.955996h74.427253z m0 291.456317h-74.427253v242.039847h74.427253z m0 335.225188h-74.427253v242.039848h74.427253zM0.000003-106.579473L300.795024 896l71.381585-21.420527-300.784935-1002.569388zM838.194081 874.579473l71.381585 21.420527 300.784935-1002.569388-71.381585-21.420527z"  horiz-adv-x="1210" />

    
    <glyph glyph-name="lahuodian" unicode="&#58950;" d="M609.374499 140.281891l24.427269 24.427269 24.435801-24.427269-24.435801-24.435801zM853.271781 432.769218l24.316352 24.316352 24.316353-24.316352-24.316353-24.316353zM658.049864 384.034128l24.435801 24.435802 24.435802-24.435802-24.435802-24.435801zM658.186377 432.73509l24.316352 24.316352 24.316353-24.316352-24.316353-24.316353zM755.648024 91.521205l24.435802 24.435801 24.435801-24.435801-24.435801-24.435801zM706.870274 42.700795l24.435802 24.427269 24.435801-24.427269-24.435801-24.435801zM511.853127 335.281974l24.435801 24.435802 24.435801-24.435802-24.435801-24.435801zM804.306326 140.256295l24.435801 24.435801 24.435801-24.435801-24.435801-24.435801zM706.836146 237.777667l24.427269 24.435801L755.707749 237.777667l-24.435802-24.435802zM901.827697 237.811795l24.435802 24.435801 24.435801-24.435801-24.435801-24.427269zM609.391563 335.299038l24.435801 24.435802 24.435801-24.435802-24.435801-24.435801zM658.066928-5.983103l24.435801 24.435802 24.435802-24.435802-24.435802-24.427269zM560.613813 286.478628l24.435801 24.435802 24.435801-24.435802-24.435801-24.435801zM560.656473 91.478545l24.427269 24.435801 24.435802-24.435801-24.435802-24.427269zM853.169396 189.076705l24.435801 24.435801 24.435802-24.435801-24.435802-24.435801zM463.118037 384.059724l24.435801 24.435802 24.42727-24.435802-24.42727-24.435801zM755.613896 286.512756l24.427269 24.435802 24.435802-24.435802-24.435802-24.435801zM316.895704 140.281891l24.435801 24.435801 24.435801-24.435801-24.435801-24.435801zM804.45137 481.51284l24.316353 24.316352 24.316353-24.316352-24.316353-24.316353zM853.135268 676.547051l24.435801 24.435802 24.435801-24.435802-24.435801-24.427269zM755.707749 530.29059l24.316352 24.316352 24.316353-24.316352-24.316353-24.316353zM901.870358 627.777833l24.435801 24.42727 24.435801-24.435802-24.435801-24.435801zM414.417076 237.717942l24.435801 24.435802 24.435801-24.435802-24.435801-24.427269zM121.921217 335.26491l24.435801 24.435802 24.435801-24.435802-24.435801-24.435801zM170.681903 481.538436l24.435801 24.435801 24.435801-24.435801-24.435801-24.427269zM316.9213 627.777833l24.435801 24.435802L365.792903 627.777833l-24.435802-24.435801zM219.340204 530.282058l24.435801 24.427269 24.435801-24.427269-24.435801-24.435802zM73.100806 384.04266l24.435802 24.435802 24.435801-24.435802-24.435801-24.435801zM121.904153 432.718026l24.435801 24.435801 24.435801-24.435801-24.435801-24.435802zM560.835646 237.777667l24.316353 24.316352 24.316352-24.316352-24.316352-24.316353zM170.664838 286.521288l24.42727 24.435802 24.435801-24.435802-24.435801-24.435801zM609.519544 481.538436l24.316352 24.316352 24.307821-24.316352-24.316353-24.316353zM414.391479 42.786115l24.435802 24.435802 24.435801-24.435802-24.435801-24.435801zM463.135101-5.957506l24.427269 24.435801 24.435802-24.435801-24.435802-24.435802zM511.972576 481.521372l24.316352 24.316352 24.316353-24.316352-24.316353-24.316353zM463.25455 432.752154l24.316353 24.316352 24.316352-24.316352-24.316352-24.316353zM511.861659-54.735256l24.444333 24.435801 24.42727-24.435801-24.42727-24.435802zM609.408627-54.718192l24.435801 24.435801 24.435801-24.435801-24.435801-24.435802zM560.775922 530.316186l24.316352 24.316352 24.316353-24.316352-24.316353-24.316353zM511.946979 286.495692l24.316353 24.316353 24.316353-24.316353-24.316353-24.316352zM560.630877-103.453282L585.066678-79.017481l24.435801-24.435801L585.066678-127.889083zM463.280146 335.299038l24.316353 24.316353 24.30782-24.316353-24.316352-24.316352zM268.160614 189.025513l24.435801 24.435801 24.42727-24.435801-24.42727-24.435801zM219.399928 237.743538l24.427269 24.435802 24.435802-24.435802-24.435802-24.435801zM511.836063 432.73509l24.435801 24.435801 24.427269-24.435801-24.427269-24.435802zM268.14355 578.957423l24.435801 24.435801 24.435802-24.435801-24.435802-24.435801zM365.630794 91.504141l24.435801 24.435801 24.435801-24.435801-24.435801-24.435801zM414.536524 383.95734l24.316353 24.316352 24.316352-24.316352-24.316352-24.316353zM317.057813 91.521205l24.316352 24.316353 24.316353-24.316353-24.316353-24.316352zM365.733178 42.80318l24.316353 24.316352 24.316352-24.316352-24.316352-24.316353zM463.152165 189.059641l24.435802 24.435801 24.435801-24.435801-24.435801-24.427269zM414.493864-6.000167l24.316353 24.316353 24.316352-24.316353-24.316352-24.316352zM268.262999 140.239231l24.316352 24.316352 24.307821-24.316352-24.316353-24.316353zM463.288678-54.718192l24.316353 24.316352 24.316352-24.316352-24.316352-24.316353zM170.818415 237.760603l24.316353 24.316352 24.316353-24.316352-24.316353-24.316353zM122.023601 286.478628l24.316353 24.316353 24.316352-24.316353-24.316352-24.316352zM73.262915 335.281974l24.316353 24.316353 24.30782-24.316353-24.316352-24.316352zM219.493781 189.042577l24.316352 24.316352 24.316353-24.316352-24.316353-24.316353zM853.271781 140.298955l24.316352 24.316353 24.316353-24.316353-24.316353-24.316352zM901.989806 189.059641l24.316353 24.316353 24.316352-24.316353-24.316352-24.316352zM658.229037-54.735256l24.316353 24.316352 24.316352-24.316352-24.316352-24.316353zM804.468435 91.495609l24.316352 24.316353 24.316353-24.316353-24.316353-24.316353zM609.511012-103.419154l24.316352 24.316353 24.316353-24.316353-24.316353-24.316352zM707.032383-5.940442l24.316353 24.316352 24.316352-24.316352-24.316352-24.316353zM511.827531 140.256295l24.435801 24.435801 24.435801-24.435801-24.435801-24.427269zM755.750409 42.820244l24.316353 24.316352 24.316352-24.316352-24.316352-24.316353zM511.972576-103.436218l24.316352 24.316353 24.307821-24.316353-24.316353-24.316352zM804.331922 335.273442l24.427269 24.435802 24.435801-24.435802-24.435801-24.427269zM853.135268 384.076788l24.427269 24.42727 24.435801-24.42727-24.435801-24.435801zM560.596749 384.017064l24.435801 24.435801L609.468351 384.017064l-24.435801-24.435801zM560.639409 481.495776L585.066678 505.940109l24.427269-24.435801-24.427269-24.435802zM511.964044 871.453282l24.316352 24.316353 24.307821-24.316353-24.316353-24.316353zM707.057979 774.034295l24.316353 24.316352 24.316353-24.316352-24.316353-24.316353zM365.579601 676.512923l24.435802 24.435801 24.435801-24.435801-24.435801-24.435801zM755.733345 725.230949l24.316352 24.316352 24.316353-24.316352-24.316353-24.316353zM853.297377 627.794897l24.316352 24.316353 24.316353-24.316353-24.316353-24.316352zM804.417242 676.512923l24.316353 24.316353 24.30782-24.316353-24.316352-24.316352zM609.502479 871.470346l24.316353 24.316353 24.307821-24.316353-24.316353-24.316352zM658.177845 822.75232l24.316352 24.316353 24.316353-24.316353-24.316353-24.316352zM463.246018 822.769385l24.316352 24.316352 24.307821-24.316352-24.316353-24.316353zM317.006621 676.538519l24.316352 24.316353 24.307821-24.316353-24.316353-24.316352zM122.049197 481.504308l24.316353 24.316352 24.307821-24.316352-24.316353-24.316353zM170.767223 530.299122l24.316353 24.316352 24.30782-24.316352-24.316352-24.316353zM560.801518 432.77775l24.316353 24.316353 24.30782-24.316353-24.316353-24.316353zM219.485249 578.974487l24.316352 24.316353 24.307821-24.316353L243.784537 554.658135zM609.374499 432.752154l24.435801 24.435801 24.435801-24.435801-24.435801-24.435801zM73.245851 432.73509l24.316353 24.316352 24.30782-24.316352-24.316352-24.316353zM901.972742 578.991551l24.316353 24.316353 24.316352-24.316353-24.316352-24.316352zM609.536608 384l24.316352 24.316353 24.316353-24.316353-24.316353-24.316353zM414.527992 773.97457l24.316353 24.316353 24.30782-24.316353-24.316352-24.316352zM365.724646 725.213885l24.316353 24.316352 24.30782-24.316352-24.316352-24.316353zM560.818582 335.316103l24.316353 24.316352 24.316352-24.316352-24.316352-24.316353zM268.288595 627.735173l24.316352 24.316353 24.307821-24.316353-24.316353-24.316352zM511.998172 383.974404l24.316352 24.316352 24.307821-24.316352-24.316353-24.316353zM219.502313 481.521372l24.316352 24.316352 24.307821-24.316352-24.316353-24.316353zM219.382864 335.281974l24.427269 24.435802 24.435802-24.435802-24.435802-24.435801zM414.502396 578.957423l24.316353 24.316353 24.316352-24.316353-24.316352-24.316352zM268.14355 286.478628l24.427269 24.435802 24.435802-24.435802-24.435802-24.435801zM365.69905 530.273526l24.316353 24.316352 24.316352-24.316352-24.316352-24.316353zM560.792986 140.298955l24.316352 24.316353 24.316353-24.316353-24.316353-24.316352zM365.613729 189.042577l24.435802 24.435801 24.435801-24.435801-24.435801-24.435801zM560.639409 773.97457l24.435801 24.435802 24.435802-24.435802L585.066678 749.530237zM316.87864 237.820327l24.435801 24.435801 24.427269-24.435801-24.427269-24.435801zM511.972576 189.042577l24.316352 24.316352 24.316353-24.316352-24.316353-24.316353zM609.511012 189.059641l24.316352 24.316353 24.316353-24.316353-24.316353-24.316352zM365.596665 578.974487l24.435802 24.435801 24.435801-24.435801-24.435801-24.435801zM414.400012 627.735173l24.435801 24.435801 24.435801-24.435801-24.435801-24.435801zM463.118037 676.529987l24.435801 24.435801 24.435802-24.435801-24.435802-24.427269zM511.836063 725.213885l24.435801 24.427269 24.435801-24.427269-24.435801-24.435802zM268.160614 481.504308l24.435801 24.427269 24.435802-24.427269-24.435802-24.435802zM316.87864 530.299122l24.435801 24.435801 24.435801-24.435801-24.435801-24.435801zM219.357268 432.73509l24.435801 24.435801 24.435802-24.435801L243.784537 408.30782zM170.639242 384.059724l24.435802 24.435802 24.435801-24.435802-24.435801-24.435801zM414.374415 140.239231l24.435802 24.435801 24.435801-24.435801-24.435801-24.435802zM463.29721 237.760603l24.316353 24.316352 24.316352-24.316352-24.316352-24.316353zM853.1438 286.529821l24.444333 24.435801 24.42727-24.435801-24.42727-24.42727zM804.340454 237.735006l24.444333 24.435802 24.427269-24.435802-24.427269-24.435801zM755.622428 189.059641l24.444334 24.435801 24.427269-24.435801-24.427269-24.435801zM414.51946 481.495776l24.316353 24.316352 24.316352-24.316352-24.316352-24.316353zM463.237486 530.299122l24.316352 24.316352 24.316353-24.316352-24.316353-24.316353zM560.818582 627.794897l24.316353 24.316353 24.316352-24.316353-24.316352-24.316352zM511.955512 578.974487l24.316352 24.316353 24.316353-24.316353L536.263332 554.658135zM901.861826 335.299038l24.444333 24.42727 24.427269-24.42727-24.427269-24.435801zM511.853127 42.80318l24.427269 24.435801 24.435801-24.435801-24.435801-24.435802zM463.169229 91.521205l24.435802 24.435801 24.435801-24.435801-24.435801-24.435801zM560.613813-6.000167l24.435801 24.435802 24.427269-24.435802-24.427269-24.435801zM414.502396 286.478628l24.316353 24.316353 24.30782-24.316353-24.316352-24.316352zM365.733178 335.281974l24.316353 24.316353 24.316352-24.316353-24.316352-24.316352zM658.101056 91.504141l24.444334 24.427269 24.427269-24.427269-24.427269-24.435801zM317.057813 384l24.316352 24.316353 24.316353-24.316353-24.316353-24.316353zM706.85321 140.239231l24.435802 24.435801L755.707749 140.239231l-24.42727-24.435802zM365.716114 432.73509l24.316353 24.316352 24.316352-24.316352-24.316352-24.316353zM609.383031 42.820244l24.444333 24.435801 24.427269-24.435801-24.427269-24.42727zM707.049447 189.076705l24.316353 24.316353 24.316353-24.316353-24.316353-24.316352zM609.528076 91.521205l24.316352 24.316353 24.316353-24.316353-24.316353-24.316352zM463.143633 578.991551l24.42727 24.435802 24.435801-24.435802-24.435801-24.435801zM658.186377 140.256295l24.316352 24.316352 24.316353-24.316352-24.316353-24.316353zM560.81005 42.84584l24.316353 24.316352 24.316352-24.316352-24.316352-24.316353zM414.357351 530.256462l24.435802 24.435801 24.435801-24.435801-24.435801-24.435802zM755.767473 237.760603l24.316353 24.316352 24.316352-24.316352-24.316352-24.316353zM560.596749 676.495859l24.435801 24.427269 24.435801-24.427269-24.435801-24.435801zM511.861659 627.752237l24.427269 24.435801 24.435801-24.435801-24.435801-24.427269zM804.425774 286.495692l24.316353 24.316353 24.316352-24.316353-24.316352-24.316352zM658.229037 237.735006l24.316353 24.316353 24.316352-24.316353-24.316352-24.316352zM317.015153 286.521288l24.316352 24.316353 24.316353-24.316353-24.316353-24.316352zM804.400178 725.213885l24.435801 24.427269 24.42727-24.435801-24.42727-24.435802zM414.510928 189.025513l24.316353 24.316352 24.316352-24.316352-24.316352-24.316353zM365.622262 481.521372l24.427269 24.435801 24.435801-24.435801-24.435801-24.435802zM463.25455 140.281891l24.316353 24.316353 24.316352-24.316353-24.316352-24.316352zM268.262999 432.718026l24.316352 24.316352 24.316353-24.316352-24.316353-24.316353zM511.98964 91.504141l24.316352 24.316353 24.316353-24.316353-24.316353-24.316353zM219.519377 383.982936l24.316352 24.316352 24.316353-24.316352-24.316353-24.316353zM268.280063 335.26491l24.316352 24.316353 24.316353-24.316353-24.316353-24.316352zM804.468435 383.974404l24.316352 24.316352 24.316353-24.316352-24.316353-24.316353zM755.613896 578.991551l24.435801 24.435802 24.435802-24.435802-24.435802-24.435801zM706.878806 627.735173l24.435802 24.435801 24.427269-24.435801-24.427269-24.435801zM804.306326 432.73509l24.435801 24.427269 24.435801-24.427269-24.435801-24.435802zM609.383031 725.230949l24.427269 24.435801 24.435801-24.435801-24.435801-24.435802zM853.288845 335.316103l24.316352 24.316352 24.316353-24.316352-24.316353-24.316353zM755.750409 335.299038l24.316353 24.316353 24.316352-24.316353-24.316352-24.316352zM707.032383 286.538353l24.316353 24.316352 24.316352-24.316352-24.316352-24.316353zM658.058396 676.512923l24.427269 24.435801 24.435802-24.435801-24.435802-24.435801zM804.374582 530.273526l24.435801 24.435801 24.435802-24.435801-24.435802-24.435802zM901.853294 432.752154l24.427269 24.435801 24.435801-24.435801-24.435801-24.435801zM902.00687 383.991468l24.316353 24.316352 24.316353-24.316352-24.316353-24.316353zM658.07546 578.974487l24.435801 24.427269 24.42727-24.427269-24.42727-24.435801zM609.400095 627.777833l24.427269 24.42727 24.435801-24.42727-24.435801-24.435801zM316.904236 432.760686l24.427269 24.427269 24.435801-24.427269-24.435801-24.435801zM706.836146 530.256462l24.435801 24.427269L755.707749 530.256462l-24.435802-24.435802zM755.63096 481.538436l24.435802 24.427269 24.435801-24.427269-24.435801-24.435801zM317.040749 481.538436l24.316352 24.316352 24.316353-24.316352-24.316353-24.316353zM853.169396 481.5555l24.435801 24.435801 24.435802-24.435801-24.435802-24.435801zM658.194909 725.213885l24.316352 24.316352 24.316353-24.316352-24.316353-24.316353zM804.45137 189.042577l24.316353 24.316352 24.307821-24.316352-24.316353-24.316353zM755.733345 140.273359l24.316352 24.316353 24.307821-24.316353-24.316353-24.316353zM365.579601 384.04266l24.427269 24.42727 24.435802-24.42727-24.435802-24.435801zM414.382947 432.718026l24.42727 24.435801 24.435801-24.435801-24.435801-24.435802zM853.314441 237.777667l24.316353 24.316352 24.30782-24.316352-24.316352-24.316353zM463.160697 481.538436l24.42727 24.435801 24.435801-24.435801-24.435801-24.435801zM901.972742 286.512756l24.316353 24.316353 24.30782-24.316353-24.316352-24.316352zM707.040915 579.008615l24.316353 24.316353 24.30782-24.316353-24.316352-24.316352zM609.493947-5.957506l24.316353 24.316352 24.30782-24.316352-24.316352-24.316353zM560.630877 189.025513L585.066678 213.452782l24.435801-24.427269L585.066678 164.589712zM560.835646-54.701128l24.316353 24.316352 24.30782-24.316352-24.316352-24.316353zM658.211973 42.80318l24.316353 24.316352 24.30782-24.316352-24.316352-24.316353zM707.075044 91.538269l24.316352 24.316353 24.307821-24.316353-24.316353-24.316352zM463.135101 286.521288l24.435802 24.42727 24.435801-24.42727-24.435801-24.435801zM609.493947 578.991551l24.316353 24.316353 24.316353-24.316353-24.316353-24.316352zM511.810467 237.803263l24.435801 24.427269 24.435801-24.427269-24.435801-24.435801zM414.400012 335.26491l24.435801 24.42727 24.427269-24.42727-24.427269-24.435801zM658.101056 773.991635l24.42727 24.435801 24.435801-24.435801-24.435801-24.435802zM609.357435 822.769385l24.435801 24.435801 24.435801-24.435801-24.435801-24.435802zM658.211973 335.281974l24.316353 24.316353 24.316352-24.316353-24.316352-24.316352zM706.861742 725.188288l24.42727 24.435802 24.435801-24.435802-24.435801-24.435801zM707.075044 384.017064l24.316352 24.316353L755.707749 384.017064l-24.316353-24.316352zM463.160697 774.017231l24.435802 24.427269 24.435801-24.427269-24.435801-24.435802zM511.818999 822.75232l24.435801 24.435802 24.435801-24.435802-24.435801-24.435801zM609.493947 286.512756l24.316353 24.316353 24.316353-24.316353-24.316353-24.316352zM560.622345 871.513006l24.435801 24.435802 24.435801-24.435802-24.435801-24.435801zM560.622345 578.948891l24.427269 24.435801 24.435801-24.435801-24.435801-24.427269zM706.878806 430.86657l22.524622 26.210468 26.201936-22.524621-22.516089-26.201936zM901.827697 530.29059l24.435802 24.435801 24.435801-24.435801-24.435801-24.435802zM511.818999 530.273526l24.427269 24.435801 24.435801-24.435801-24.435801-24.435802zM853.152332 579.093936l24.435801 24.435801 24.435802-24.435801L877.588133 554.658135zM755.596832 676.529987l24.435801 24.435801 24.42727-24.435801-24.42727-24.435801zM609.357435 530.29059l24.435801 24.435801 24.427269-24.435801-24.427269-24.427269zM658.092524 481.51284l24.435802 24.435801 24.435801-24.435801-24.435801-24.42727zM804.331922 627.752237l24.435801 24.435801 24.435801-24.435801-24.435801-24.435801zM511.946979-5.983103l24.316353 24.316353 24.316353-24.316353-24.316353-24.316352zM707.057979 481.5555l24.316353 24.316353 24.316353-24.316353-24.316353-24.316353zM414.485332 676.495859l24.316353 24.316353 24.30782-24.316353-24.316352-24.316353zM365.74171 627.760769l24.316353 24.316353 24.30782-24.316353-24.316352-24.316352zM463.263082 725.230949l24.316353 24.316352 24.30782-24.316352-24.316352-24.316353zM316.9213 335.299038l24.427269 24.435802L365.792903 335.299038l-24.435802-24.427269zM755.733345 432.752154l24.316352 24.316352 24.316353-24.316352-24.316353-24.316353zM268.117954 384.017064l24.435801 24.435801L316.989556 384.017064l-24.435801-24.427269zM511.981108 773.991635l24.316352 24.316352 24.307821-24.316352-24.316353-24.316353zM463.280146 627.777833l24.316353 24.316353 24.316352-24.316353-24.316352-24.316352zM511.938447 676.512923l24.316353 24.316353 24.316353-24.316353-24.316353-24.316352zM658.211973 627.752237l24.316353 24.316353 24.316352-24.316353-24.316352-24.316352zM804.425774 578.974487l24.316353 24.316353 24.316352-24.316353L828.742127 554.658135zM901.989806 481.538436l24.316353 24.316352 24.316352-24.316352-24.316352-24.316353zM755.758941 627.777833l24.316353 24.316353 24.30782-24.316353-24.316352-24.316352zM560.784454 822.794981l24.316352 24.316352 24.307821-24.316352-24.316353-24.316353zM707.015319 676.555583l24.316353 24.316353 24.316352-24.316353-24.316352-24.316352zM658.177845 530.273526l24.316352 24.316352 24.307821-24.316352-24.316353-24.316353zM609.519544 774.017231l24.316352 24.316352 24.316353-24.316352-24.316353-24.316353zM414.382947 725.188288l24.435802 24.435802 24.435801-24.435802-24.435801-24.427269zM853.254717 530.316186l24.316352 24.316352 24.316353-24.316352-24.316353-24.316353zM317.040749 189.059641l24.316352 24.316353 24.307821-24.316353-24.316353-24.316352zM414.536524 91.478545l24.316353 24.316352 24.316352-24.316352-24.316352-24.316353zM219.476717 286.495692l24.316352 24.316353 24.316353-24.316353L243.784537 262.17934zM268.297127 237.717942l24.316352 24.316353 24.316353-24.316353-24.316353-24.316352zM365.707582 140.256295l24.316353 24.316352 24.316352-24.316352-24.316352-24.316353zM609.476883 676.529987l24.316353 24.316353 24.316352-24.316353-24.316352-24.316352zM609.408627 237.760603l24.435801 24.435801 24.435801-24.435801-24.435801-24.435802zM560.801518 725.248013l24.316353 24.316352 24.316352-24.316352-24.316352-24.316353zM463.271614 42.820244l24.316353 24.316352 24.316352-24.316352-24.316352-24.316353zM755.5883 384.051192l24.435801 24.435802 24.435802-24.435802-24.435802-24.427269zM268.245935 530.256462l24.316352 24.316352 24.307821-24.316352-24.316353-24.316353zM317.023685 578.991551l24.316352 24.316353 24.307821-24.316353-24.316353-24.316352zM365.758774 237.743538l24.316353 24.316353 24.30782-24.316353-24.316352-24.316352zM365.596665 286.495692l24.435802 24.435802 24.427269-24.435802-24.427269-24.427269zM122.066262 383.95734l24.316352 24.316352 24.307821-24.316352-24.316353-24.316353zM706.870274 335.256378l24.435802 24.435802 24.435801-24.435802-24.435801-24.435801zM170.801351 335.299038l24.316353 24.316353 24.316352-24.316353-24.316352-24.316352zM658.066928 286.495692l24.435801 24.435802 24.435802-24.435802-24.435802-24.435801zM170.784287 432.760686l24.316353 24.316352 24.30782-24.316352-24.316352-24.316353zM122.006537 676.495859l24.316353 24.316353 24.316352-24.316353-24.316352-24.316353zM73.134935-103.427686l24.435801 24.435801 24.435801-24.435801-24.435801-24.435801zM901.853294 725.222417l24.435801 24.435801 24.435801-24.435801-24.435801-24.42727zM804.383114 822.743788l24.427269 24.435802 24.435802-24.435802-24.435802-24.427269zM853.177928 774.025763l24.435801 24.435801 24.42727-24.435801-24.42727-24.427269zM73.126403 871.538603L97.562204 895.974404 121.998005 871.538603 97.562204 847.102801zM122.032133-103.453282l24.316353 24.316353 24.316352-24.316353-24.316352-24.316353zM170.647774 676.538519l24.42727 24.435802 24.435801-24.435802-24.435801-24.435801zM316.887172 822.769385l24.427269 24.435801 24.435801-24.435801-24.435801-24.42727zM219.3658 725.213885L243.784537 749.649686l24.435801-24.435801-24.435801-24.435802zM268.169146 773.97457l24.427269 24.435802 24.435802-24.435802-24.435802-24.435801zM121.929749 627.743705l24.427269 24.427269 24.435801-24.427269-24.435801-24.435801zM73.143467 774.000167l24.435801 24.435801 24.435801-24.435801-24.435801-24.435802zM73.126403 578.974487l24.427269 24.435801 24.435801-24.435801-24.435801-24.427269zM121.887088 822.735256l24.435802 24.435802L170.750159 822.735256l-24.435801-24.435801zM755.622428 871.461814L780.041165 895.897615l24.435802-24.435801-24.435802-24.427269zM365.605197 871.538603L390.023935 895.965872l24.435801-24.427269-24.435801-24.435802zM365.750242-54.735256l24.316353 24.316352 24.316352-24.316352-24.316352-24.316353zM268.271531 42.786115l24.316352 24.316353 24.316353-24.316353-24.316353-24.316352zM317.015153-5.957506l24.316352 24.316352 24.316353-24.316352-24.316353-24.316353zM414.510928-103.453282l24.316353 24.316353 24.316352-24.316353-24.316352-24.316353zM170.767223 822.777917l24.316353 24.316352 24.316352-24.316352-24.316352-24.316353zM122.049197 773.97457l24.316353 24.316353 24.316353-24.316353-24.316353-24.316352zM219.485249 871.538603l24.316352 24.316352 24.316353-24.316352-24.316353-24.316353zM73.27998-54.735256l24.316352 24.316352 24.307821-24.316352-24.316353-24.316353zM73.27998 237.743538l24.316352 24.316353 24.316353-24.316353-24.316353-24.316352zM219.519377 91.504141l24.316352 24.316353 24.307821-24.316353-24.316353-24.316353zM122.040665 189.025513l24.316353 24.316352 24.316353-24.316352-24.316353-24.316353zM170.775755 140.281891l24.316353 24.316353 24.316352-24.316353-24.316352-24.316352zM853.288845 42.837308l24.316352 24.316352 24.316353-24.316352-24.316353-24.316353zM804.425774-5.983103l24.316353 24.316353 24.316352-24.316353-24.316352-24.316352zM902.00687 91.521205l24.316353 24.316353 24.316353-24.316353-24.316353-24.316352zM73.228787 530.282058l24.307821 24.316352 24.316352-24.316352-24.316352-24.316353zM170.664838 871.555667l24.435802 24.435801 24.435801-24.435801-24.435801-24.435802zM901.972742 871.461814l24.316353 24.316353 24.316352-24.316353-24.316352-24.316352zM755.767473-54.718192l24.316353 24.316352 24.316352-24.316352-24.316352-24.316353zM707.049447-103.393558l24.316353 24.316353 24.316353-24.316353-24.316353-24.316352zM317.023685 871.470346l24.316352 24.316353 24.316353-24.316353-24.316353-24.316352zM268.245935 822.735256l24.316352 24.316353 24.316353-24.316353-24.316353-24.316352zM73.228787 822.75232l24.316353 24.316353 24.30782-24.316353-24.316352-24.316352zM170.784287 725.230949l24.316353 24.316352 24.316352-24.316352-24.316352-24.316353zM658.092524 189.042577l24.42727 24.435801 24.435801-24.435801-24.435801-24.435801zM219.502313 774.000167l24.316352 24.316352 24.316353-24.316352-24.316353-24.316353zM853.254717 822.786449l24.316352 24.316352 24.316353-24.316352-24.316353-24.316353zM901.998338 774.017231l24.316353 24.30782 24.30782-24.316352-24.316352-24.316353zM853.160864 871.572731l24.427269 24.427269 24.435802-24.427269-24.435802-24.435802zM901.836229 822.769385l24.435802 24.427269 24.427269-24.427269-24.427269-24.435802zM268.297127-54.75232l24.316352 24.316352 24.316353-24.316352-24.316353-24.316353zM317.032217-103.419154l24.316352 24.316353 24.316353-24.316353-24.316353-24.30782zM170.801351 42.820244l24.316353 24.316352 24.30782-24.316352-24.316352-24.307821zM219.468185-5.983103l24.316352 24.316353 24.316353-24.316353-24.316353-24.30782zM73.237319 140.256295l24.316353 24.316352 24.316352-24.316352-24.316352-24.307821zM122.05773 91.487077l24.316352 24.316352 24.316353-24.316352-24.316353-24.316353zM73.262915 627.760769l24.316353 24.316353 24.316353-24.316353-24.316353-24.316352zM804.442838-103.436218l24.316353 24.316353 24.316353-24.316353-24.316353-24.316352zM901.96421-5.966038l24.316353 24.316352 24.316352-24.316352-24.316352-24.316353zM853.314441-54.701128l24.307821 24.316352 24.316352-24.316352-24.316352-24.316353zM122.032133 871.521538L146.348486 895.837891l24.30782-24.316353-24.316352-24.316352zM365.613729-103.513006l24.42727 24.427269 24.435801-24.427269-24.435801-24.435802zM316.929832-54.70966l24.435801 24.427269 24.435802-24.427269-24.435802-24.435802zM268.135018-5.991635l24.435801 24.42727 24.435802-24.42727-24.435802-24.435801zM219.391396-54.735256l24.435801 24.435801 24.435802-24.435801-24.435802-24.42727zM73.100806 676.521455l24.435802 24.427269 24.435801-24.427269-24.435801-24.435801zM219.374332 42.811712l24.435801 24.427269 24.435802-24.427269-24.435802-24.435802zM73.160531 91.504141l24.427269 24.435801 24.435801-24.435801-24.435801-24.427269zM121.921217 42.786115L146.348486 67.221917l24.427269-24.435802-24.427269-24.427269zM170.656306-5.957506l24.435802 24.435801 24.435801-24.435801-24.435801-24.42727zM901.887422-54.718192l24.435801 24.435801 24.427269-24.435801-24.427269-24.435802zM170.698967 91.529737l24.435801 24.427269 24.427269-24.427269-24.427269-24.435801zM853.169396-103.393558l24.435801 24.42727 24.42727-24.42727-24.42727-24.435801zM121.904153 140.247763l24.427269 24.427269 24.435801-24.427269-24.435801-24.435801zM73.143467 189.051109l24.427269 24.427269 24.435801-24.427269-24.435801-24.435801zM268.066762-103.538603l24.435801 24.435802 24.435801-24.435802-24.435801-24.427269zM804.340454-54.735256l24.435801 24.427269 24.435801-24.427269-24.435801-24.435802zM268.14355 871.513006L292.587883 895.948808l24.435802-24.435802-24.435802-24.427269zM73.117871-5.97457l24.435801 24.435801 24.427269-24.435801-24.427269-24.435802zM219.340204 822.75232L243.784537 847.188122l24.435801-24.435802-24.435801-24.435801zM121.938281-54.75232l24.435801 24.435801 24.435801-24.435801-24.435801-24.435802zM170.673371-103.495942l24.435801 24.435801 24.435801-24.435801-24.435801-24.435802zM170.681903 774.017231l24.435801 24.435801 24.435801-24.435801-24.435801-24.435802zM853.1438-5.940442l24.435801 24.435801 24.435802-24.435801-24.435802-24.435802zM121.904153 725.19682l24.435801 24.435802 24.435801-24.435802-24.435801-24.435801zM755.622428-103.504474l24.435801 24.435801 24.435802-24.435801-24.435802-24.42727zM901.861826 42.734923l24.435801 24.435801 24.435801-24.435801-24.435801-24.435801zM804.519627 871.453282l24.316352 24.307821 24.316353-24.316353-24.316353-24.316353zM755.605364-5.957506l24.435801 24.427269 24.435802-24.427269-24.435802-24.435802zM853.18646 91.538269l24.435802 24.435802 24.435801-24.435802-24.435801-24.435801zM658.083992-103.436218l24.435802 24.435801 24.435801-24.435801-24.435801-24.435801zM804.32339 42.80318l24.435801 24.435801 24.435801-24.435801-24.435801-24.435802zM463.143633-103.504474l24.444334 24.444333 24.427269-24.435801-24.427269-24.435802zM414.417076-54.75232l24.427269 24.427269 24.435801-24.427269-24.435801-24.435802zM170.818415-54.70966l24.316353 24.316352 24.316353-24.316352-24.316353-24.316353zM219.493781-103.427686l24.316352 24.316353 24.316353-24.316353-24.316353-24.316352zM122.023601-5.991635l24.316353 24.316353 24.30782-24.316353-24.316352-24.316352zM73.254383 42.811712l24.316353 24.316352 24.316352-24.316352-24.316352-24.316353zM901.844761 140.273359l24.435802 24.435801 24.435801-24.435801-24.435801-24.435801zM414.365883 822.735256l24.435802 24.42727L463.228954 822.735256l-24.427269-24.435801zM365.588133-5.983103l24.435802 24.444334 24.435801-24.435801-24.435801-24.435802zM316.904236 725.230949l24.435801 24.435801 24.427269-24.435801-24.427269-24.435802zM463.143633 871.470346L487.579435 895.906147l24.427269-24.435801-24.427269-24.435801zM170.664838 579.000083l24.435802 24.42727 24.427269-24.42727-24.427269-24.435801zM219.382864 627.760769l24.435801 24.435802 24.42727-24.435802-24.42727-24.435801zM268.126486 676.495859l24.435801 24.435801 24.427269-24.435801-24.427269-24.435801zM658.07546 871.538603l24.435801 24.427269 24.435802-24.435802-24.435802-24.435801zM706.836146 822.735256l24.435801 24.42727L755.707749 822.726724l-24.435802-24.435801zM755.639492 774.017231l24.42727 24.427269 24.435801-24.435801-24.435801-24.435802zM121.887088 530.256462l24.435802 24.435801 24.427269-24.435801-24.427269-24.42727zM365.622262 773.991635l24.435801 24.435801 24.427269-24.435801-24.427269-24.42727zM268.177678 91.487077l24.435801 24.427269 24.435802-24.427269-24.435802-24.435801zM219.357268 140.256295L243.784537 164.70916l24.427269-24.435801-24.427269-24.435801zM170.681903 189.059641l24.427269 24.444333 24.435801-24.435801-24.435801-24.435801zM316.912768 42.820244l24.435801 24.444333 24.435802-24.435801-24.435802-24.435802zM901.981274-103.504474l24.316353 24.316352 24.316352-24.316352-24.316352-24.316353zM73.143467 481.521372l24.435801 24.435801 24.427269-24.435801-24.427269-24.435802zM121.878556 237.777667l24.435802 24.444333 24.435801-24.435801-24.435801-24.435802zM73.117871 286.495692l24.435801 24.444334 24.435801-24.435802-24.435801-24.435801zM706.887338-54.760853l24.435802 24.435802 24.435801-24.435802-24.435801-24.427269zM73.245851 725.213885l24.316353 24.316352 24.316352-24.316352-24.316352-24.316353zM414.510928 871.427686l24.307821 24.316352 24.316352-24.316352-24.316352-24.316353zM365.707582 822.75232l24.307821 24.316353 24.316352-24.316353-24.316352-24.316352zM853.280313 725.248013l24.316352 24.316352 24.307821-24.316352-24.316353-24.316353zM707.040915 871.48741l24.316353 24.316353 24.316352-24.316353-24.316352-24.316352zM755.716281 822.769385l24.316352 24.316352 24.316353-24.316352-24.316353-24.316353zM804.536691 773.991635l24.316353 24.316352 24.316352-24.316352-24.316352-24.316353zM901.947146 676.529987l24.316353 24.316353 24.316352-24.316353-24.316352-24.316352zM170.801351 627.777833l24.316353 24.316353 24.316352-24.316353-24.316352-24.316352zM122.032133 578.957423l24.307821 24.316353 24.316352-24.316353-24.316352-24.316352zM317.040749 774.017231l24.316352 24.316352 24.316353-24.316352-24.316353-24.316353zM219.468185 676.512923l24.30782 24.316353 24.316353-24.316353-24.316353-24.316352zM268.271531 725.19682l24.30782 24.316353 24.316353-24.316353-24.316353-24.316352zM213.325106 713.780933h597.243747v-127.980803h-597.243747zM213.325106 536.570181h597.243747v-127.980803h-597.243747zM213.325106 359.44475h597.243747v-127.980803h-597.243747zM213.325106 182.233998h597.243747v-127.980803h-597.243747z"  horiz-adv-x="1024" />

    
    <glyph glyph-name="juxing" unicode="&#58952;" d="M955.733333 827.733333v-887.466666H68.266667V827.733333h887.466666m68.266667 68.266667H0v-1024h1024V896z"  horiz-adv-x="1024" />

    
    <glyph glyph-name="yuanxing" unicode="&#58953;" d="M512 827.733333A443.733333 443.733333 0 1 0 68.266667 384 444.245333 444.245333 0 0 0 512 827.733333m0 68.266667a512 512 0 1 1 512-512A512 512 0 0 1 512 896z"  horiz-adv-x="1024" />

    
    <glyph glyph-name="duobianxing" unicode="&#58954;" d="M512 807.168l431.701333-359.765333L762.538667-59.733333H261.461333L80.298667 447.402667 512 807.168M512 896L0 469.333333l213.333333-597.333333h597.333334l213.333333 597.333333L512 896z"  horiz-adv-x="1024" />

    
    <glyph glyph-name="mian" unicode="&#58958;" d="M518.954667 896l-65.536-54.613333 43.690666-52.48 21.845334 18.261333 53.76-44.8 43.690666 52.394667-1.621333 1.365333-0.512 0.512h-1.450667L550.869333 869.461333l-4.864-5.888L518.954667 896zM387.882667 786.773333l-60.245334-50.261333h-2.218666l-0.512-0.512-1.536-1.365333 43.690666-52.394667L431.573333 733.866667 387.882667 786.773333zM256.725333 677.461333l-32.768-27.306666-0.768-0.597334h-0.426666L191.616 622.933333l43.690667-52.48 65.536 54.698667-43.690667 52.394667z m-131.072-109.226666l-0.768-0.597334H123.349333l-63.232-54.016L103.808 460.8l65.536 54.613333-43.690667 52.48zM76.672 477.013333L12.416 454.058667l28.672-80.298667 64.341333 22.954667-28.757333 80.298666z m57.429333-160.682666l-64.256-22.954667 15.018667-42.069333V249.514667l13.653333-36.181334 64.256 22.954667-28.672 80.384zM191.616 155.562667l-64.341333-22.954667 16.298666-45.482667v-0.853333l11.690667-32.682667 64.256 22.954667L191.616 155.562667z m57.344-160.682667l-64.256-22.954667 28.672-80.384 64.256 23.125334-28.757333 80.384z m121.258667-54.613333h-85.333334v-68.266667h85.333334v68.266667z m170.666666 0h-85.333333v-68.266667h85.333333v68.266667z m170.666667 0h-85.333333v-68.266667h85.333333v68.266667z m63.488 15.530666l-21.674667-60.842666 43.52-15.530667-43.52 15.530667 43.52-15.530667v-7.424h20.736l21.76 60.842667-64.341333 22.954666z m57.429333 160.682667l-28.672-80.384 64.256-22.954667 28.672 80.725334-64.256 22.613333z m57.429334 160.768l-28.757334-80.384 64.341334-22.954667 26.538666 74.325334v3.584l-64.256 22.954666z m57.344 160.682667l-28.672-80.384 64.256-22.954667 5.205333 14.421333v1.024l0.512 1.536 22.016 61.696-64.341333 22.954667z m-3.072 103.68l-43.690667-52.394667 65.536-54.613333 43.776 52.394666-47.616 39.68-17.066667 14.165334zM813.098667 650.922667l-43.690667-52.48 65.536-54.613334 43.690667 52.48L815.658667 648.533333h-0.682667l-0.682667 0.597334z m-131.157334 109.226666l-43.690666-52.394666L703.616 653.056l43.776 52.48-65.621333 54.613333zM673.237333 102.4H364.672L254.421333 411.050667l264.533334 220.416 264.533333-220.416L673.237333 102.4z"  horiz-adv-x="1024" />

    
    <glyph glyph-name="xian" unicode="&#58959;" d="M853.333333 896H768v-68.266667h85.333333V896zM682.666667 896H597.333333v-68.266667h85.333334V896zM512 896l-2.56-2.56-6.826667-6.826667-9.728-9.728-11.093333-11.093333-11.008-11.008L460.8 844.8l-6.826667-6.826667-2.56-2.56 48.298667-48.298666 60.330667 60.330666L512 896zM391.338667 775.338667l-2.645334-2.645334-6.826666-6.826666-9.642667-9.642667-11.093333-11.093333L349.866667 733.866667l-9.642667-9.642667-6.826667-6.826667-2.56-2.56 48.213334-48.298666 60.330666 60.330666-48.213333 48.298667zM270.677333 654.677333l-2.645333-2.645333-6.826667-6.826667-9.642666-9.642666-11.093334-11.093334-11.093333-11.093333-9.642667-9.642667-6.826666-6.826666-2.645334-2.645334L258.56 546.133333l60.330667 60.330667-48.213334 48.298667zM149.930667 533.930667l-2.56-2.56-6.826667-6.826667-9.642667-9.642667L119.466667 503.466667l-11.093334-11.093334-9.642666-9.642666-6.826667-6.826667-2.645333-2.645333 48.298666-48.213334 60.330667 60.330667-48.298667 48.213333zM29.269333 413.269333l-1.28-1.28-3.242666-3.242666-4.693334-4.693334-5.376-5.376-5.376-5.376-4.693333-4.693333-3.328-3.328L0 384v-43.946667h43.946667l4.352-4.352 4.352 4.352H68.266667v15.701334l9.301333 9.216L68.266667 374.272V384H58.538667l-29.269334 29.269333zM68.266667 254.72H0v-85.333333h68.266667v85.333333z m0-170.666667H0v-85.333333h68.266667v85.333333zM43.946667-59.733333H0v-68.266667h68.266667v41.386667H43.946667V-59.733333z m170.666666 0h-85.333333v-68.266667h85.333333v68.266667z m170.666667 0h-85.333333v-68.266667h85.333333v68.266667zM494.933333-48.64l-11.178666-11.093333h-13.141334v-13.141334l-6.912-6.826666 6.912-6.912-6.912 6.912 6.912-6.912V-128H512.426667l29.866666 29.866667-30.293333 32.256V-59.733333h-6.144L494.933333-48.64z m120.576 120.661333l-60.330666-60.330666 48.213333-48.298667 21.76 21.76 0.682667 0.682667 34.816 34.816-48.213334 48.298666z m120.661334 120.661334l-60.330667-60.330667 48.298667-48.298667 37.461333 37.461334 21.76 21.76-48.298667 48.298666z m120.746666 120.661333l-60.330666-60.330667L844.8 204.8l0.512 0.426667 0.597333 0.597333 57.685334 57.770667-48.213334 48.298666z m118.784 118.784l45.653334-45.653333-45.653334 45.653333-58.453333-58.453333 48.298667-48.298667 55.381333 55.381333 0.597333 0.597334 0.768 0.768 1.706667 1.877333v2.645333h-2.645333l-45.653334 45.653334zM1024 557.141333h-68.266667v-85.333333h68.266667v85.333333z m0 170.666667h-68.266667v-85.333333h68.266667v85.333333zM1024 896h-85.333333v-68.266667h17.066666v-14.592h68.266667V896zM298.666667 128h-42.666667v42.666667l469.333333 469.333333h42.666667v-42.752L298.666667 128zM768 640m-85.333333 0a85.333333 85.333333 0 1 1 170.666666 0 85.333333 85.333333 0 1 1-170.666666 0ZM256 128m-85.333333 0a85.333333 85.333333 0 1 1 170.666666 0 85.333333 85.333333 0 1 1-170.666666 0Z"  horiz-adv-x="1024" />

    
    <glyph glyph-name="dian1" unicode="&#58960;" d="M511.36 896h-74.325333L426.453333 889.002667l11.178667-67.328A452.266667 452.266667 0 0 0 511.36 827.733333V896zM343.850667 867.925333H341.376a511.317333 511.317333 0 0 1-75.434667-33.621333l32.853334-59.733333a440.149333 440.149333 0 0 0 67.413333 29.866666l-22.357333 63.488z m-149.077334-81.493333a521.898667 521.898667 0 0 1-62.378666-58.112L182.912 682.666667a450.645333 450.645333 0 0 0 54.101333 50.346666l-42.24 53.674667zM80.512 660.736c-5.546667-8.533333-10.752-17.066667-15.786667-26.197333V632.064H60.373333v-0.512Q49.365333 605.866667 40.490667 585.472L103.04 558.592a445.952 445.952 0 0 0 34.645333 65.194667l-57.173333 36.949333z m-66.901333-156.16C10.794667 492.885333 8.405333 481.109333 6.442667 469.333333v-17.066666C2.517333 442.026667 1.493333 431.872 0.64 421.632v-0.938667l68.266667-4.778666a445.952 445.952 0 0 0 11.093333 72.618666l-66.389333 16.042667zM69.674667 341.333333l-68.266667-6.4c0.938667-10.069333 2.218667-19.968 3.754667-29.866666v-4.352c2.56-14.08 5.632-27.989333 9.301333-41.642667l65.962667 17.664A434.688 434.688 0 0 0 69.674667 341.333333z m38.058666-142.08L45.610667 170.666667c6.229333-13.653333 13.397333-27.221333 20.992-40.533334H68.906667v-0.597333c5.290667-9.045333 11.008-17.92 17.066666-26.624l56.490667 38.314667a445.781333 445.781333 0 0 0-36.266667 64.341333z m82.688-121.856l-49.408-47.104c6.656-6.912 13.397333-13.568 20.309334-20.138666l0.768-0.597334 0.682666-0.682666 0.938667-0.853334c5.632-5.034667 11.434667-9.898667 17.066667-14.677333l0.768-0.597333h0.597333l9.386667-7.168 40.874666 54.613333a443.733333 443.733333 0 0 0-55.296 49.066667z m117.930667-88.234666l-31.317333-60.672a509.952 509.952 0 0 1 78.762666-32.597334l20.736 65.024a439.808 439.808 0 0 0-68.266666 28.245334z m140.117333-44.629334l-9.557333-67.584c10.581333-1.536 21.248-2.730667 32.085333-3.584h52.992l-1.621333 68.266667h-11.008a440.832 440.832 0 0 0-62.890667 4.437333z m218.453334 23.552a437.504 437.504 0 0 0-71.082667-19.968l12.970667-67.072a507.136 507.136 0 0 1 82.005333 23.125334l-23.893333 63.914666zM794.24 42.069333a449.962667 449.962667 0 0 0-60.586667-42.666666l34.133334-59.050667a510.208 510.208 0 0 1 64.085333 44.032H833.322667L794.24 42.069333zM890.666667 153.6a451.328 451.328 0 0 0-43.605334-59.733333l51.2-44.629334a512 512 0 0 1 50.261334 68.864L890.666667 153.6z m54.528 136.533333a452.266667 452.266667 0 0 0-21.504-70.570666l63.402666-25.6v3.925333a507.989333 507.989333 0 0 1 20.138667 69.205333l-62.037333 23.04z m74.496 155.392l-67.754667-8.533333a445.44 445.44 0 0 0 3.157333-53.418667v-20.565333l68.266667-3.157333v11.52c0 15.957333-1.621333 31.744-3.498667 47.274666z m-48.042667 162.901334l-61.269333-29.952a451.584 451.584 0 0 0 26.709333-68.778667l65.450667 19.370667c-2.389333 8.533333-5.034667 16.384-7.850667 24.405333V558.421333c-5.632 14.933333-11.946667 29.610667-18.944 43.861334z m-98.816 138.154666l-48.213333-48.298666a443.733333 443.733333 0 0 0 47.872-56.405334l55.552 39.765334-2.304 3.157333-0.512 0.768a520.533333 520.533333 0 0 1-38.570667 45.909333v0.853334l-6.912 6.997333zM734.506667 844.8l-29.781334-61.44a449.536 449.536 0 0 0 63.573334-37.632l39.594666 55.637333-5.973333 4.181334H771.626667L768.64 826.965333 767.104 827.733333c-10.24 5.973333-20.821333 11.52-31.573333 17.066667h-0.512zM571.264 892.501333L563.84 824.746667a442.965333 442.965333 0 0 0 72.277333-14.677334l19.114667 65.536a508.416 508.416 0 0 1-83.541333 17.066667zM510.421333 384.170667m-170.666666 0a170.666667 170.666667 0 1 1 341.333333 0 170.666667 170.666667 0 1 1-341.333333 0Z"  horiz-adv-x="1024" />

    
    <glyph glyph-name="tuichu" unicode="&#58962;" d="M136.385582 896v-399.95072h68.192791v332.439857h749.524016v-886.506285H204.578373v349.488055h-68.192791v-417.680846h885.739116V896zM749.524016 385.235994l-204.578374 204.578374-51.144593-51.144594 153.43378-153.43378-152.837093-153.43378 51.144593-51.144593 153.43378 153.43378zM613.223674 419.33239H0v-68.192791h613.223674l34.096396 34.096395z"  horiz-adv-x="1024" />

    
    <glyph glyph-name="suoyoushebei" unicode="&#58963;" d="M401.122106 827.76745v-332.633684H68.488422V827.76745h332.633684m68.23255 68.23255H0.255872v-469.098784h469.098784z m-68.23255-623.133766v-332.633684H68.488422v332.633684h332.633684m68.23255 68.23255H0.255872v-469.098784h469.098784z m486.156922-68.23255v-332.633684H622.877894v332.633684h332.633684m68.23255 68.23255H554.645344v-469.098784h469.098784z m-68.23255 485.645177v-332.633683H622.877894v332.633683h332.633684m68.23255 68.232551H554.645344v-469.098784h469.098784z"  horiz-adv-x="1024" />

    
    <glyph glyph-name="tishi" unicode="&#58965;" d="M561.578667 310.954667a57.770667 57.770667 0 0 0-51.2-53.845334c1.962667 0 3.754667-1.109333 5.717333-1.109333H505.173333c1.962667 0 3.584 0.938667 5.461334 1.109333A56.576 56.576 0 0 0 460.8 310.954667l-12.8 274.090666A51.797333 51.797333 0 0 0 499.797333 640h24.832a51.2 51.2 0 0 0 51.2-54.954667l-14.165333-274.090666zM512 64a64 64 0 1 0 64 64 64 64 0 0 0-64-64zM512 896a512 512 0 1 1 512-512A512 512 0 0 1 512 896z"  horiz-adv-x="1024" />

    
    <glyph glyph-name="chenggong" unicode="&#58966;" d="M512 896a512 512 0 1 1 512-512A512 512 0 0 1 512 896z m-45.994667-758.613333l-239.786666 244.053333 61.44 49.408L426.666667 321.962667A1536.512 1536.512 0 0 0 783.189333 630.613333l14.592-34.133333C638.037333 449.706667 507.136 243.114667 466.005333 137.386667z"  horiz-adv-x="1024" />

    
    <glyph glyph-name="shibai" unicode="&#58967;" d="M512 896a512 512 0 1 1 512-512A513.536 513.536 0 0 1 512 896z m230.4-678.4a45.226667 45.226667 0 0 0-64-64L512 320 345.6 153.6a42.666667 42.666667 0 0 0-64 0 42.666667 42.666667 0 0 0 0 64L448 384 281.6 550.4a42.666667 42.666667 0 0 0 0 64 42.666667 42.666667 0 0 0 64 0L512 448 678.4 614.4a42.666667 42.666667 0 0 0 64 0 42.666667 42.666667 0 0 0 0-64L576 384z"  horiz-adv-x="1024" />

    
    <glyph glyph-name="shebeishu-dianlan" unicode="&#58900;" d="M1024-102.4V870.4a25.6 25.6 0 0 1-25.6 25.6H25.6a25.6 25.6 0 0 1-25.6-25.6v-972.8a25.6 25.6 0 0 1 25.6-25.6h972.8a25.6 25.6 0 0 1 25.6 25.6z m-930.133333 42.666667a25.6 25.6 0 0 0-25.6 25.6V802.133333a25.6 25.6 0 0 0 25.6 25.6h836.266666a25.6 25.6 0 0 0 25.6-25.6v-836.266666a25.6 25.6 0 0 0-25.6-25.6zM251.904 657.066667h81.237333v-46.848h-81.237333zM645.290667 610.218667h-110.933334V657.066667h110.933334z m-156.074667 0H378.709333V657.066667h110.506667zM690.773333 657.066667h81.237334v-46.848h-81.237334zM853.333333 360.618667H755.797333v46.762666H853.333333z m-162.133333 0H560.725333v46.762666H691.2z m-194.986667 0H365.738667v46.762666H495.786667z m-195.072 0H170.666667v46.762666h130.048zM251.904 157.781333h81.237333V110.933333h-81.237333zM645.290667 110.933333h-110.933334v46.848h110.933334z m-156.074667 0H378.709333v46.848h110.506667zM690.773333 157.781333h81.237334V110.933333h-81.237334z"  horiz-adv-x="1024" />

    
    <glyph glyph-name="shebeishu-biandianzhan" unicode="&#58901;" d="M869.045219 747.746612l-1.104467 1.019507Q858.085513 758.961195 846.87093 768.561557l-5.777209 5.097538c-6.54184 5.607291-13.168639 11.044665-19.965356 16.312121-1.104467 0.764631-2.123974 1.699179-3.143482 2.548769a505.250945 505.250945 0 0 1-58.026971 38.061615l-4.842661 2.548768-4.587784 2.46381c-6.032086 3.3134-12.149132 6.456881-18.436094 9.515404L730.64707 845.874213q-17.586505 8.495896-35.852681 15.717408a513.661882 513.661882 0 0 1-73.744379 22.344206A510.433442 510.433442 0 0 1 536.345925 896H509.75377a515.021226 515.021226 0 0 1-74.678927-5.522333l0.509753 0.509754a508.224509 508.224509 0 0 1-135.934338-39.760794l-0.934549-1.019507A510.858237 510.858237 0 0 1 45.79288 597.284291l-1.019507-0.934549a508.224509 508.224509 0 0 1-39.760794-135.934338l0.509754 0.509753A515.021226 515.021226 0 0 1 0 386.24623c0-8.495896 0-17.586505 0.679672-26.252319a510.433442 510.433442 0 0 1 11.639377-84.449208 513.661882 513.661882 0 0 1 22.344207-73.744379c1.699179-4.332907 3.483317-8.495896 5.352415-13.08368a3.058523 3.058523 0 0 1 0-0.764631c3.058523-7.306471 6.371922-14.612941 9.770281-21.749494l1.274384-2.46381c2.803646-5.777209 5.777209-11.554419 8.495896-16.991792l2.888605-5.267456c0.84959-1.529261 1.61422-3.058523 2.46381-4.502825a505.250945 505.250945 0 0 1 38.061615-58.02697l2.123974-2.548769c5.522333-7.136553 11.129624-14.018229 16.991792-20.814946l4.842661-5.607291c6.626799-7.476389 13.338557-14.782859 20.390151-21.834453l0.509753-0.509754a509.75377 509.75377 0 1 1 720.791831 720.791831z m-320.889998-801.502844c-12.658885-1.104467-25.487689-1.784138-38.401451-1.784139a450.282497 450.282497 0 0 0-55.902997 3.653236l494.036362 494.036362A450.282497 450.282497 0 0 0 951.540371 386.24623c0-12.913762-0.679672-25.487689-1.784139-38.401451z m371.610498 275.436953a443.48578 443.48578 0 0 0-245.44644-245.44644z m-544.671903-256.236228a441.106929 441.106929 0 0 0-67.96717 28.206375l595.137527 594.712732a441.106929 441.106929 0 0 0 28.206375-67.96717zM102.630426 558.03325l235.336324 235.336324a439.747586 439.747586 0 0 0 128.627867 32.539283L70.091143 429.405383a439.747586 439.747586 0 0 0 32.539283 128.627867zM71.110651 334.251345L561.748655 824.889349a437.283776 437.283776 0 0 0 79.35167-16.991792L87.847566 254.899675a437.283776 437.283776 0 0 0-16.736915 79.35167z m44.603455-147.658675L709.40733 780.285894a435.499638 435.499638 0 0 0 59.471273-36.447394L152.1615 126.951479a435.499638 435.499638 0 0 0-36.447394 59.641191z m80.541095-111.636076L821.043406 699.744799a444.505287 444.505287 0 0 0 44.518495-51.655049l-617.651651-617.651651a444.505287 444.505287 0 0 0-51.655049 44.518495z"  horiz-adv-x="1028" />

    
    <glyph glyph-name="shebeishu-biandian" unicode="&#58902;" d="M493.381818 709.818182H27.927273a27.927273 27.927273 0 0 1-27.927273-27.927273v-781.963636a27.927273 27.927273 0 0 1 27.927273-27.927273h465.454545a27.927273 27.927273 0 0 1 27.927273 27.927273V681.890909a27.927273 27.927273 0 0 1-27.927273 27.927273z m-46.545454-735.418182a27.927273 27.927273 0 0 0-27.927273-27.927273H102.4a27.927273 27.927273 0 0 0-27.927273 27.927273V607.418182a27.927273 27.927273 0 0 0 27.927273 27.927273h316.509091a27.927273 27.927273 0 0 0 27.927273-27.927273zM251.345455 514.327273L121.018182 253.672727h83.781818l139.636364 260.654546H251.345455zM307.2 328.145455L158.254545 67.490909h90.484364L400.290909 328.145455H307.2zM167.563636 328.145455l-46.545454-74.472728h232.727273l46.545454 74.472728H167.563636zM186.181818 896v-130.327273h37.236364v-55.854545h111.709091v55.854545h37.236363V896H186.181818zM1089.163636 709.818182H623.709091a27.927273 27.927273 0 0 1-27.927273-27.927273v-781.963636a27.927273 27.927273 0 0 1 27.927273-27.927273h465.454545a27.927273 27.927273 0 0 1 27.927273 27.927273V681.890909a27.927273 27.927273 0 0 1-27.927273 27.927273z m-46.545454-735.418182a27.927273 27.927273 0 0 0-27.927273-27.927273H698.181818a27.927273 27.927273 0 0 0-27.927273 27.927273V607.418182a27.927273 27.927273 0 0 0 27.927273 27.927273h316.509091a27.927273 27.927273 0 0 0 27.927273-27.927273zM847.127273 514.327273L716.8 253.672727h83.781818l139.636364 260.654546H847.127273zM902.981818 328.145455L754.036364 67.490909h90.484363L996.072727 328.145455H902.981818zM763.345455 328.145455l-46.545455-74.472728h232.727273l46.545454 74.472728H763.345455zM781.963636 896v-130.327273h37.236364v-55.854545h111.709091v55.854545h37.236364V896H781.963636z"  horiz-adv-x="1117" />

    
    <glyph glyph-name="shebeishu-gongsi" unicode="&#58903;" d="M930.133333-67.498667h93.866667V-128h-145.066667V772.608l-82.432 65.962667-443.733333-160.597334v50.432L795.818667 896 930.133333 779.605333v-847.104zM96.170667-128H0v60.501333h93.866667m120.149333 260.693334V286.293333l210.346667 55.808v-107.008z m0-321.194667v97.706667l210.346667 13.994666V-128z m0 162.901333V128l210.346667 37.205333v-107.008z m0 321.194667V453.802667l210.346667 69.802666v-111.701333z m475.818667 279.210667V-128h-51.2V608.938667L563.2 654.165333 146.944 514.304V-128H88.746667V546.901333l480.341333 162.901334zM513.706667 571.733333h49.237333v-699.733333H513.706667zM751.616 742.4h49.237333v-870.4h-49.237333z"  horiz-adv-x="1024" />

    
    <glyph glyph-name="shebeishu-fanhui" unicode="&#58904;" d="M1268.38248-126.158475a30.439321 30.439321 0 0 0-29.897697 24.481447c0 1.841525-20.365098 93.159489-105.616862 182.744253-108.324987 114.174536-276.445366 176.894703-486.920816 182.419277v-247.955894a30.547646 30.547646 0 0 0-48.421269-24.698097l-584.954929 423.983998a30.547646 30.547646 0 0 0 0 49.396194L597.417511 890.146551a30.547646 30.547646 0 0 0 48.529594-24.698097v-263.229718a841.035198 841.035198 0 0 0 179.602828-27.189572c121.21566-32.497496 221.957898-88.393189 299.301939-167.037129 119.157485-120.890685 177.544653-290.63594 173.969929-504.144489a30.439321 30.439321 0 0 0-27.731197-29.897696zM615.399459 324.90677c135.189584 0 255.105344-21.664997 356.280882-63.261792a592.754328 592.754328 0 0 0 208.092299-141.472433 529.709185 529.709185 0 0 0 47.33802-57.953868c-20.256773 123.707135-69.003017 225.207648-145.805433 303.309963C916.217947 533.107394 671.620127 541.665068 624.390433 541.665068h-7.907724a30.655971 30.655971 0 0 0-31.522571 30.330997V805.544736L82.440524 439.622931 584.960138 75.326V294.359124a30.547646 30.547646 0 0 0 30.547646 30.547646z"  horiz-adv-x="1302" />

    
    <glyph glyph-name="shebeishu-fadian" unicode="&#58905;" d="M1089.163636 709.818182H27.927273a27.927273 27.927273 0 0 1-27.927273-27.927273v-781.963636a27.927273 27.927273 0 0 1 27.927273-27.927273h1061.236363a27.927273 27.927273 0 0 1 27.927273 27.927273V681.890909a27.927273 27.927273 0 0 1-27.927273 27.927273z m-46.545454-735.418182a27.927273 27.927273 0 0 0-27.927273-27.927273H102.4a27.927273 27.927273 0 0 0-27.927273 27.927273V607.418182a27.927273 27.927273 0 0 0 27.927273 27.927273h912.290909a27.927273 27.927273 0 0 0 27.927273-27.927273zM130.327273 579.490909h111.709091v-37.236364H130.327273zM875.054545 579.490909h111.709091v-37.236364H875.054545zM549.236364 514.327273L418.909091 253.672727h83.781818l139.636364 260.654546H549.236364zM605.090909 328.145455L456.145455 67.490909h90.484363L698.181818 328.145455H605.090909zM465.454545 328.145455l-46.545454-74.472728h232.727273l46.545454 74.472728H465.454545zM186.181818 765.672727h37.236364v-55.854545h111.709091v55.854545h37.236363V896H186.181818zM744.727273 896v-130.327273h37.236363v-55.854545h111.709091v55.854545h37.236364V896z"  horiz-adv-x="1117" />

    
    <glyph glyph-name="shebeishu-fenjiexiang" unicode="&#58906;" d="M1366.243556-102.39999999999998V870.4c0 14.108444-15.24622201 25.6-34.13333399 25.6h-1297.06666601c-18.887111 0-34.133333-11.37777799-34.13333399-25.6v-972.8C0.91022199-116.62222200999997 16.156444-128 35.043556-128h1297.06666601c18.887111 0 34.133333 11.37777799 34.13333399 25.6zM126.06577801-59.733333000000016c-18.887111 0-34.133333 11.37777799-34.13333401 25.6V802.133333C91.932444 816.355556 107.178667 827.733333 126.06577801 827.733333h1115.02222199c18.887111 0 34.133333-11.37777799 34.133333-25.6v-836.266666c0-14.108444-15.24622201-25.6-34.133333-25.6zM682.666667 334.506667l-682.666667 500.622222 45.511111 56.88888901 637.155556-466.48888901v-91.022222zM1342.57777799 812.373333l-659.91111099-477.866666v91.022222l614.4 443.73333301 45.51111099-56.88888901zM649.443556 425.528889h68.26666601v-523.377778h-68.26666601z"  horiz-adv-x="1366" />

    
    <glyph glyph-name="shebeishu-fenzhi" unicode="&#58907;" d="M1024-102.4V870.4a25.6 25.6 0 0 1-25.6 25.6H25.6a25.6 25.6 0 0 1-25.6-25.6v-972.8a25.6 25.6 0 0 1 25.6-25.6h972.8a25.6 25.6 0 0 1 25.6 25.6z m-930.133333 42.666667a25.6 25.6 0 0 0-25.6 25.6V802.133333a25.6 25.6 0 0 0 25.6 25.6h836.266666a25.6 25.6 0 0 0 25.6-25.6v-836.266666a25.6 25.6 0 0 0-25.6-25.6zM495.018667 725.333333h45.482666v-682.666666h-45.482666zM270.0288 685.892267l32.469333 31.854933 237.397334-241.92-32.4608-31.854933zM494.976 478.976l250.888533 246.289067 31.863467-32.452267-250.888533-246.289067zM853.333333 548.010667l-31.914666 32.512-300.714667-295.253334-317.525333 323.669334L170.666667 577.024 503.296 238.08l17.493333 17.152L537.6 238.08l315.733333 309.930667z"  horiz-adv-x="1024" />

    
    <glyph glyph-name="shebeishu-ganxian" unicode="&#58908;" d="M1024-102.4V870.4a25.6 25.6 0 0 1-25.6 25.6H25.6a25.6 25.6 0 0 1-25.6-25.6v-972.8a25.6 25.6 0 0 1 25.6-25.6h972.8a25.6 25.6 0 0 1 25.6 25.6z m-930.133333 42.666667a25.6 25.6 0 0 0-25.6 25.6V802.133333a25.6 25.6 0 0 0 25.6 25.6h836.266666a25.6 25.6 0 0 0 25.6-25.6v-836.266666a25.6 25.6 0 0 0-25.6-25.6zM318.549333 405.333333H674.133333v-45.482666H320a102.4 102.4 0 0 1 0-204.8h384v-45.568H318.549333a147.968 147.968 0 0 0 0 295.850666zM441.258667 655.445333h130.901333v-45.482666H441.258667zM329.301333 655.445333h66.389334v-45.482666h-66.389334zM806.4 507.562667a102.4 102.4 0 0 1-102.4 102.4H617.557333v45.482666h87.893334a147.968 147.968 0 0 0 0-295.850666H349.866667v45.568h354.133333a102.4 102.4 0 0 1 102.4 102.4zM170.666667 634.282667A91.050667 91.050667 0 1 1 261.717333 725.333333 91.050667 91.050667 0 0 1 170.666667 634.282667z m45.482666 0A45.568 45.568 0 1 0 261.717333 588.8a45.568 45.568 0 0 0-45.568 45.482667zM671.317333 133.717333a91.050667 91.050667 0 1 1 90.965334 90.965334 91.050667 91.050667 0 0 1-90.965334-90.965334z m45.482667 0a45.568 45.568 0 1 0 45.482667-45.568A45.482667 45.482667 0 0 0 716.8 133.717333z"  horiz-adv-x="1024" />

    
    <glyph glyph-name="shebeishu-gongdiansuo" unicode="&#58909;" d="M512 896L0 384l102.314667-0.085333L512 793.6l410.368-409.685333L1024 384 512 896zM153.6 452.266667h68.266667v-580.266667h-68.266667zM802.133333 452.266667h68.266667v-580.266667h-68.266667zM153.6-59.733333h716.8v-68.266667H153.6zM503.466667 517.461333L383.573333 276.565333h77.056l128.426667 240.896H503.466667zM554.837333 345.344L417.792 104.448h83.285333l139.349334 240.896H554.837333zM426.410667 345.344l-42.837334-68.778667h214.016l42.837334 68.778667H426.410667z"  horiz-adv-x="1024" />

    
    <glyph glyph-name="shebeishu-peidian" unicode="&#58910;" d="M844.8 554.666667h68.266667v-682.666667h-68.266667zM204.885333 896h68.266667v-1024h-68.266667zM100.608 810.666667A415.317333 415.317333 0 0 0 0 870.4V896h20.821333a588.8 588.8 0 0 1 94.890667-51.2c64.170667-25.088 98.048-26.88 98.048-26.88v-34.730667s-31.232-2.389333-113.152 27.477334zM100.608 615.253333A418.133333 418.133333 0 0 0 0 674.133333v25.6h20.821333a588.8 588.8 0 0 1 94.890667-51.2c64.170667-25.088 98.048-26.88 98.048-26.88v-34.730666s-31.232-1.877333-113.152 28.330666zM256 807.850667s78.250667-139.605333 276.821333-228.778667C712.789333 498.176 844.8 503.978667 844.8 503.978667v-36.010667s-154.197333-7.168-343.125333 83.882667C324.949333 637.098667 262.144 733.866667 262.144 733.866667zM256 587.434667s21.162667-54.442667 222.634667-136.533334C696.064 361.642667 844.8 386.645333 844.8 386.645333v-36.010666a965.461333 965.461333 0 0 0-379.392 68.266666C307.797333 483.072 256 529.066667 256 529.066667zM966.485333 447.914667a509.866667 509.866667 0 0 1 57.514667-26.624V392.533333h-12.544a517.461333 517.461333 0 0 0-55.210667 22.698667 536.490667 536.490667 0 0 0-61.013333 41.898667v39.338666a593.92 593.92 0 0 1 71.253333-48.554666zM966.485333 335.445333a509.866667 509.866667 0 0 1 57.514667-26.624v-28.501333h-12.544a537.6 537.6 0 0 0-55.210667 22.698667 545.109333 545.109333 0 0 0-61.013333 41.984V384a593.92 593.92 0 0 1 71.253333-48.554667z"  horiz-adv-x="1024" />

    
    <glyph glyph-name="shebeishu-shudian" unicode="&#58911;" d="M826.026667-108.202667L771.072-128 570.794667 876.202667 625.749333 896 826.026667-108.202667zM254.549333-119.893333l-54.954666 19.797333L398.250667 896l54.954666-19.797333L254.549333-119.893333zM255.744-43.605333l-28.501333 66.218666 482.474666 374.357334 28.501334-66.218667-482.474667-374.357333zM289.536 330.752l28.416 66.218667 482.474667-374.357334-28.416-66.218666-482.474667 374.357333zM692.053333 450.474667l-40.192 54.101333 161.28 216.661333L853.333333 667.221333l-161.28-216.746666zM210.858667 721.237333L170.666667 667.221333l161.28-216.746666 40.192 54.101333-161.28 216.661333zM398.250667 896h227.584v-76.458667H398.250667zM170.666667 743.082667h682.666666v-76.458667H170.666667zM312.917333 558.336h398.250667v-76.458667H312.917333z"  horiz-adv-x="1024" />

    
    <glyph glyph-name="shebeishu-gongdianju" unicode="&#58912;" d="M204.8 896v-1024h614.4V896z m546.133333-955.733333H273.066667V827.733333h477.866666zM341.333333 145.06666700000005v-273.066667h341.333334V145.06666700000005z m273.066667-204.8H409.6V85.33333300000004h204.8zM341.333333 281.6h68.266667v68.266667h-68.266667z m136.533334 0h68.266666v68.266667h-68.266666z m136.533333 68.266667v-68.266667h68.266667v68.266667zM341.333333 486.4h68.266667v68.266667h-68.266667z m136.533334 0h68.266666v68.266667h-68.266666z m136.533333 68.266667v-68.266667h68.266667v68.266667zM341.333333 691.2h68.266667v68.266667h-68.266667z m136.533334 0h68.266666v68.266667h-68.266666z m136.533333 68.266667v-68.266667h68.266667v68.266667zM68.266667 418.133333v-546.133333h204.8V418.133333z m136.533333-477.866666h-68.266667V349.866667h68.266667zM750.933333 622.933333v-750.933333h204.8V622.933333z m136.533334-682.666666h-68.266667V554.666667h68.266667zM0-59.733333000000016h1024v-68.266667H0z"  horiz-adv-x="1024" />

    
    <glyph glyph-name="shebeishu-shousuo" unicode="&#58970;" d="M0 896v-1024h1024V896z m896-896H128V768h768zM256 443.733333h512v-119.466666H256z"  horiz-adv-x="1024" />

    
    <glyph glyph-name="shebeishu-zhankai" unicode="&#58971;" d="M0 896v-1024h1024V896z m896-896H128V768h768zM256 443.733333h512v-119.466666H256zM452.266667 128V640h119.466666v-512z"  horiz-adv-x="1024" />

    
    <glyph glyph-name="jiakongdaoxian" unicode="&#58972;" d="M0 896h1920v-128H0zM0 448h1920v-128H0zM0 0h1920v-128H0z"  horiz-adv-x="1920" />

    
    <glyph glyph-name="shudiandianlan" unicode="&#58973;" d="M600 896h240v-128h-240zM120 896h240v-128h-240zM1080 896h240v-128h-240zM1560 896h240v-128h-240zM360 448h240v-128h-240zM0 448h120v-128H0zM840 448h240v-128h-240zM1320 448h240v-128h-240zM1800 448h120v-128h-120zM600 0h240v-128h-240zM120 0h240v-128h-240zM1080 0h240v-128h-240zM1560 0h240v-128h-240z"  horiz-adv-x="1920" />

    
    <glyph glyph-name="caidan-danxiantu" unicode="&#58974;" d="M955.733333 657.066667v-716.8H238.933333V657.066667h716.8m36.778667 68.266666H202.154667A31.488 31.488 0 0 1 170.666667 693.845333v-790.357333a31.488 31.488 0 0 1 31.488-31.488h790.357333a31.488 31.488 0 0 1 31.488 31.488V693.845333a31.488 31.488 0 0 1-31.488 31.488zM733.866667 554.666667L579.157333 322.816l154.112 6.741333L509.098667 42.666667 619.52 266.154667 460.8 271.36l148.138667 224.256zM183.7056 78.677333l168.951467 168.951467 36.206933-36.206933-168.96-168.951467zM789.623467 317.636267l168.951466 168.96 36.1984-36.206934-168.951466-168.96zM68.266667 110.933333V827.733333h716.8v-59.733333h68.266666V864.512A31.488 31.488 0 0 1 821.845333 896H31.488A31.488 31.488 0 0 1 0 864.512v-790.357333A31.488 31.488 0 0 1 31.488 42.666667h95.829333v68.266666z"  horiz-adv-x="1024" />

    
    <glyph glyph-name="caidan-dianyuanzhuisu" unicode="&#58975;" d="M955.733333-59.733333H571.733333v-68.266667h420.778667a31.488 31.488 0 0 1 31.488 31.488V324.266667h-68.266667zM992.512 896H571.733333v-68.266667h384v-384h68.266667V864.512A31.488 31.488 0 0 1 992.512 896zM68.266667 827.733333h384V896H31.488A31.488 31.488 0 0 1 0 864.512V443.733333h68.266667zM68.266667-59.733333V324.266667H0v-420.778667A31.488 31.488 0 0 1 31.488-128H452.266667v68.266667zM554.666667 62.464a334.677333 334.677333 0 0 0-85.333334 0V-42.666667h85.333334V62.464zM554.666667 810.666667H469.333333v-105.130667a334.677333 334.677333 0 0 0 85.333334 0V810.666667zM190.464 426.666667H85.333333v-85.333334h105.130667a334.677333 334.677333 0 0 0 0 85.333334zM938.666667 426.666667H833.536a334.677333 334.677333 0 0 0 0-85.333334H938.666667V426.666667zM512 657.066667a273.066667 273.066667 0 1 0-273.066667-273.066667 273.066667 273.066667 0 0 0 273.066667 273.066667m0 68.266666a341.333333 341.333333 0 1 1 341.333333-341.333333 341.333333 341.333333 0 0 1-341.333333 341.333333zM512 486.4a102.4 102.4 0 1 0-102.4-102.4 102.4 102.4 0 0 0 102.4 102.4m0 68.266667a170.666667 170.666667 0 1 1 170.666667-170.666667 170.666667 170.666667 0 0 1-170.666667 170.666667z"  horiz-adv-x="1024" />

    
    <glyph glyph-name="caidan-dingwei" unicode="&#58976;" d="M511.993515 629.750402a88.404214 88.404214 0 1 0-62.804538-26.111669A88.404214 88.404214 0 0 0 511.993515 629.750402m0 52.905996a142.0782 142.0782 0 1 1 100.606725-41.471474A142.0782 142.0782 0 0 1 511.993515 682.656398zM755.78776 792.56434a339.025039 339.025039 0 0 1-487.588491 0 358.39546 358.39546 0 0 1 0-498.681684L511.993515 44.285818l243.794245 249.596838a358.39546 358.39546 0 0 1 0 498.681684z m-36.778201-463.610128L511.993515 116.135574 304.97747 328.954212a303.868151 303.868151 0 0 0 0 423.16264 288.337681 288.337681 0 0 0 414.032089 0 303.868151 303.868151 0 0 0 0-423.16264zM683.682007 220.070258L622.925443 157.692381a971.507694 971.507694 0 0 0 215.122608-39.594165c88.148217-28.500972 114.345218-58.793922 117.673177-66.900486-3.157293-8.533225-29.354295-38.399514-117.673177-66.900486S633.933304-59.734198 511.993515-59.734198s-237.650323 15.615802-325.883872 44.031442S71.59376 42.664505 68.265802 51.19773c3.157293 8.533225 29.354295 38.399514 117.673176 66.900486A971.507694 971.507694 0 0 0 401.061587 157.692381l-60.927229 62.377877C141.992868 195.323905 0 129.106077 0 51.19773c0-98.985413 229.20243-179.19773 511.993515-179.19773s511.993515 80.212317 511.993514 179.19773c0 77.908346-141.992868 144.126174-340.305022 168.872528z"  horiz-adv-x="1024" />

    
    <glyph glyph-name="caidan-gongdianbanjing" unicode="&#58977;" d="M532.48 896v-491.52H1024A491.52 491.52 0 0 1 532.48 896zM917.504 363.52A425.984 425.984 0 1 0 491.52 789.504V855.04a491.52 491.52 0 1 1 491.52-491.52zM245.76 363.52a245.76 245.76 0 0 1 491.52 0h-65.536A180.224 180.224 0 1 0 491.52 543.744V609.28a245.674667 245.674667 0 0 1-245.76-245.76z"  horiz-adv-x="1024" />

    
    <glyph glyph-name="caidan-gongdianquyu" unicode="&#58978;" d="M68.266667-25.6V793.6a34.133333 34.133333 0 0 0 34.133333 34.133333h819.2a34.133333 34.133333 0 0 0 34.133333-34.133333v-375.466667a34.133333 34.133333 0 0 1 34.133334-34.133333 34.133333 34.133333 0 0 1 34.133333 34.133333V861.866667a34.133333 34.133333 0 0 1-34.133333 34.133333H34.133333a34.133333 34.133333 0 0 1-34.133333-34.133333v-955.733334a34.133333 34.133333 0 0 1 34.133333-34.133333h443.733334a34.133333 34.133333 0 0 1 34.133333 34.133333 34.133333 34.133333 0 0 1-34.133333 34.133334H102.4a34.133333 34.133333 0 0 0-34.133333 34.133333zM635.221333 555.349333A294.656 294.656 0 1 1 930.133333 260.693333a294.656 294.656 0 0 1-294.912 294.656z m0-521.301333A226.645333 226.645333 0 1 0 861.866667 260.693333 226.645333 226.645333 0 0 0 635.221333 34.133333zM794.15422 53.672571m18.101933 18.101934l11.886937 11.886936q18.101934 18.101934 36.203867 0l156.099007-156.099007q18.101934-18.101934 0-36.203867l-11.886936-11.886937q-18.101934-18.101934-36.203867 0l-156.099008 156.099008q-18.101934 18.101934 0 36.203867Z"  horiz-adv-x="1024" />

    
    <glyph glyph-name="caidan-xiangqing" unicode="&#58979;" d="M512 827.733333A443.733333 443.733333 0 1 0 68.266667 384 444.245333 444.245333 0 0 0 512 827.733333m0 68.266667a512 512 0 1 1 512-512A512 512 0 0 1 512 896zM505.856 69.802667C484.010667 57.6 465.92 51.2 452.266667 51.2a39.253333 39.253333 0 0 0-29.269334 11.178667A44.8 44.8 0 0 0 412.16 93.866667q0 63.914667 78.848 313.088a66.56 66.56 0 0 1 3.925333 20.736c0 6.912-3.157333 10.069333-9.557333 10.069333a49.066667 49.066667 0 0 1-23.978667-7.936 530.858667 530.858667 0 0 1-59.733333-52.224l-22.869333 17.578667c35.157333 37.802667 66.56 64.426667 95.317333 80.384s53.248 23.978667 73.472 23.978666a39.338667 39.338667 0 0 0 25.6-6.912 23.978667 23.978667 0 0 0 9.130667-19.712c0-10.069333-11.178667-52.138667-34.133334-126.208-36.693333-121.344-55.381333-194.304-55.381333-219.392a18.602667 18.602667 0 0 1 3.754667-12.202666 10.666667 10.666667 0 0 1 8.021333-4.778667c11.178667 0 39.936 21.248 85.333333 63.317333L610.218667 153.6c-47.018667-43.264-82.005333-71.509333-104.362667-83.797333zM628.906667 639.573333a46.592 46.592 0 0 0-35.669334-17.066666 35.328 35.328 0 0 0-26.112 10.581333 38.741333 38.741333 0 0 0-10.666666 28.245333A54.186667 54.186667 0 0 0 571.733333 700.842667 48.469333 48.469333 0 0 0 608.085333 716.8a36.437333 36.437333 0 0 0 37.290667-37.802667 60.928 60.928 0 0 0-16.469333-39.424z"  horiz-adv-x="1024" />

    
    <glyph glyph-name="caidan-tuku" unicode="&#58980;" d="M955.733333 827.733333v-887.466666H68.266667V827.733333h887.466666m36.778667 68.266667H31.488A31.488 31.488 0 0 1 0 864.512v-961.024A31.488 31.488 0 0 1 31.488-128h961.024a31.488 31.488 0 0 1 31.488 31.488V864.512A31.488 31.488 0 0 1 992.512 896zM443.733333 140.8a29.781333 29.781333 0 0 0-24.490666 12.8c-42.666667 61.610667-91.818667 94.464-145.578667 97.877333C168.96 258.133333 74.410667 153.6 73.472 152.917333a29.866667 29.866667 0 0 0-44.544 39.850667c4.608 5.205333 114.602667 126.293333 248.064 118.272 72.874667-4.352 137.386667-45.909333 191.232-123.306667A29.866667 29.866667 0 0 0 443.733333 140.8zM427.093333 176.981333a29.866667 29.866667 0 0 0-26.965333 42.666667C404.309333 228.352 503.466667 433.493333 674.133333 447.232c111.616 9.130667 223.402667-66.048 332.202667-223.402667a29.866667 29.866667 0 1 0-49.152-34.133333c-95.744 138.496-189.354667 204.8-278.186667 197.888-136.533333-11.093333-223.573333-191.914667-224.512-193.706667a29.781333 29.781333 0 0 0-27.392-16.896zM315.733333 529.066667m-76.8 0a76.8 76.8 0 1 1 153.6 0 76.8 76.8 0 1 1-153.6 0Z"  horiz-adv-x="1024" />

    
    <glyph glyph-name="caidan-taizhang" unicode="&#58981;" d="M68.267179 425.642667V823.04h303.957333l188.586667-231.68a67.669333 67.669333 0 0 1 23.04-1.024H955.733845v-86.186667a34.133333 34.133333 0 1 1 68.266667 0V618.24a37.802667 37.802667 0 0 1-9.984 25.6 33.109333 33.109333 0 0 1-24.149333 10.922667H597.333845L408.576512 886.442667A33.024 33.024 0 0 1 385.536512 896H34.133845a33.109333 33.109333 0 0 1-24.149333-10.666667A37.973333 37.973333 0 0 1 0.000512 859.477333v-433.834666M955.733845 588.8v-648.533333H68.267179V588.8h887.466666m42.069334 68.266667H26.197845A26.282667 26.282667 0 0 1 0.000512 630.869333v-732.672A26.282667 26.282667 0 0 1 26.197845-128h971.605334a26.282667 26.282667 0 0 1 26.197333 26.197333V630.869333a26.282667 26.282667 0 0 1-26.197333 26.197334zM435.200512 341.333333H179.200512a34.133333 34.133333 0 1 0 0 68.266667h256a34.133333 34.133333 0 1 0 0-68.266667zM435.200512 102.4H179.200512a34.133333 34.133333 0 1 0 0 68.266667h256a34.133333 34.133333 0 1 0 0-68.266667zM857.344512 512L702.549845 280.149333l154.197334 6.741334L632.491179 0l110.421333 223.488-158.634667 5.205333 148.138667 224.256z"  horiz-adv-x="1024" />

    
    <glyph glyph-name="caidan-daochu" unicode="&#58982;" d="M796.928 896h-601.6a25.6 25.6 0 0 1-25.6-25.6v-268.544h78.506667V817.322667h483.84V602.453333h213.333333v-651.776H248.149333v107.52h-78.506666V-102.4a25.6 25.6 0 0 1 25.6-25.6h802.133333a26.368 26.368 0 0 1 26.368 26.368V676.096zM662.528 490.581333h204.202667v-76.8H662.528z m0-182.613333h204.202667v-76.8H662.528z m0-182.528h204.202667v-76.8H662.528zM559.189333 517.290667h-76.373333v-391.082667H91.221333v-78.336h467.968V517.290667zM0 607.402667v-414.464h414.122667V607.402667z m358.4-335.018667L260.437333 273.066667l-56.832 68.266666-56.832-68.266666-97.962666-0.853334 107.178666 126.72L48.810667 527.957333h93.866666l61.354667-72.448 61.44 72.448h93.354667L251.221333 398.933333z"  horiz-adv-x="1024" />

    
    <glyph glyph-name="sousuo-fanhui" unicode="&#58983;" d="M201.857017 463.931069m36.04168-36.04168l461.033152-461.033152q36.04168-36.04168 0-72.083359l-7.8691-7.8691q-36.04168-36.04168-72.08336 0l-461.033152 461.033152q-36.04168 36.04168 0 72.083359l7.8691 7.8691q36.04168 36.04168 72.08336 0ZM121.85796 383.98097600000006m36.041679 36.04168l461.033152 461.033152q36.04168 36.04168 72.08336 0l7.8691-7.8691q36.04168-36.04168 0-72.083359l-461.033152-461.033152q-36.04168-36.04168-72.08336 0l-7.8691 7.8691q-36.04168 36.04168 0 72.083359Z"  horiz-adv-x="1024" />

    
    <glyph glyph-name="legend-shuinigan" unicode="&#58986;" d="M512 896a512 512 0 1 1 512-512A512 512 0 0 1 512 896z m0-955.733333a443.733333 443.733333 0 1 0 443.733333 443.733333 443.733333 443.733333 0 0 0-443.733333-443.733333z"  horiz-adv-x="1024" />

    
    <glyph glyph-name="legend-tiegan" unicode="&#58987;" d="M998.4 896H25.6a25.6 25.6 0 0 1-25.6-25.6v-972.8a25.6 25.6 0 0 1 25.6-25.6h972.8a25.6 25.6 0 0 1 25.6 25.6V870.4a25.6 25.6 0 0 1-25.6 25.6z m-42.666667-930.133333a25.6 25.6 0 0 0-25.6-25.6H93.866667a25.6 25.6 0 0 0-25.6 25.6V802.133333a25.6 25.6 0 0 0 25.6 25.6h836.266666a25.6 25.6 0 0 0 25.6-25.6zM80.213333 864.042667l911.786667-911.7952-48.273067-48.273067L31.940267 815.761067zM992.042667 815.786667L80.247467-96l-48.273067 48.273067 911.786667 911.786666z"  horiz-adv-x="1024" />

    
    <glyph glyph-name="legend-yingyeting" unicode="&#58988;" d="M512 664.746667l55.637333-180.053334 14.848-48.128h239.701334l-156.074667-119.466666-37.802667-28.842667 13.994667-45.568 57.856-187.050667-146.688 112.384L512 199.67999999999995l-41.472-31.658667L324.266667 55.893332999999984l57.856 187.050667 13.994666 45.568-37.802666 28.842667-156.074667 119.466666h239.274667l14.848 48.128L512 664.746667M512 896L391.168 504.832H0l316.416-241.664L195.584-128 512 113.74933299999998 828.416-128 707.584 263.168 1024 504.832H632.832L512 896z"  horiz-adv-x="1024" />

    
    <glyph glyph-name="legend-xiangshibian" unicode="&#58989;" d="M998.4 896H25.6a25.6 25.6 0 0 1-25.6-25.6v-972.8a25.6 25.6 0 0 1 25.6-25.6h972.8a25.6 25.6 0 0 1 25.6 25.6V870.4a25.6 25.6 0 0 1-25.6 25.6z m-42.666667-930.133333a25.6 25.6 0 0 0-25.6-25.6H93.866667a25.6 25.6 0 0 0-25.6 25.6V802.133333a25.6 25.6 0 0 0 25.6 25.6h836.266666a25.6 25.6 0 0 0 25.6-25.6zM194.133333 212.90666699999997l116.906667 178.517333L204.8 554.666667h81.066667l68.266666-109.909334L421.632 554.666667h80.042667L395.264 388.864 512 212.90666699999997h-83.114667l-75.861333 118.272-76.032-118.272zM547.84 554.666667h136.533333a398.506667 398.506667 0 0 0 60.501334-3.413334 90.88 90.88 0 0 0 36.010666-13.653333 88.234667 88.234667 0 0 0 26.197334-28.586667 77.653333 77.653333 0 0 0 10.496-40.021333 81.237333 81.237333 0 0 0-48.042667-74.24 89.6 89.6 0 0 0 48.042667-31.061333 81.749333 81.749333 0 0 0 17.066666-51.2 101.717333 101.717333 0 0 0-10.837333-45.397334A92.330667 92.330667 0 0 0 793.6 231.42399999999998a98.304 98.304 0 0 0-46.336-16.213333q-17.066667-1.792-83.285333-2.304H547.84z m69.12-57.002667v-79.104h45.226667q40.362667 0 50.176 1.194667a45.482667 45.482667 0 0 1 27.904 12.288 36.096 36.096 0 0 1 10.154666 26.709333 37.290667 37.290667 0 0 1-8.533333 25.6 40.021333 40.021333 0 0 1-25.6 12.032c-6.826667 0.768-26.538667 1.109333-58.965333 1.109333z m0-136.021333V270.506667h63.914667a314.88 314.88 0 0 1 47.36 2.133333 42.666667 42.666667 0 0 1 25.088 13.653333 41.813333 41.813333 0 0 1 9.642666 29.013334 44.885333 44.885333 0 0 1-7.424 26.026666A42.666667 42.666667 0 0 1 733.866667 357.12c-9.386667 3.242667-29.866667 4.864-61.269334 4.864z"  horiz-adv-x="1024" />

    
    <glyph glyph-name="legend-zhushangbileiqi" unicode="&#58990;" d="M238.933333 128h546.133334v-51.2H238.933333zM341.333333 25.600000000000023h341.333334v-51.2H341.333333zM443.733333-76.79999999999995h136.533334v-51.2H443.733333zM486.4 242.517333h51.2v-119.466666h-51.2zM486.4 896h51.2v-337.749333h-51.2zM550.912 535.893333L512 411.392 473.088 535.893333h77.824m46.421333 34.133334H426.666667l85.333333-273.066667 85.333333 273.066667zM633.856 686.250667v-443.733334h-238.933333v443.733334h238.933333m51.2 51.2h-341.333333v-546.133334h341.333333v546.133334z"  horiz-adv-x="1024" />

    
    <glyph glyph-name="legend-zhushangfuhekaiguan" unicode="&#58991;" d="M510.208 896h68.266667v-221.525333h-68.266667zM339.541333 740.864h409.6v-68.181333h-409.6zM513.109333 212.82133299999998h68.266667V-128h-68.266667zM581.376 212.565333l-61.866667-28.757333L274.858667 707.5840000000001l61.866666 28.842667 244.650667-523.861334zM544.341333 655.786667a102.4 102.4 0 1 0-102.4-102.4 102.4 102.4 0 0 0 102.4 102.4m0 51.2a153.6 153.6 0 1 1 153.6-153.6 153.6 153.6 0 0 1-153.6 153.6z"  horiz-adv-x="1024" />

    
    <glyph glyph-name="legend-zhushangduanluqi" unicode="&#58992;" d="M516.821333 896h68.266667v-273.066667h-68.266667zM516.821333 213.33333300000004h68.266667v-341.333333h-68.266667zM278.6048 708.881067l61.866667 28.859733 244.736-524.629333-61.866667-28.8512zM745.344 553.6426670000001l-126.122667 72.789333 126.122667 72.874667-34.133333 59.136-160.256-92.586667-160.256 92.586667-34.133334-59.136 126.122667-72.874667-126.122667-72.789333 34.048-59.136L550.954667 587.093333 711.210667 494.506667l34.133333 59.136z"  horiz-adv-x="1024" />

    
    <glyph glyph-name="legend-zhushanggaoyabiaoji" unicode="&#58993;" d="M997.802667 896H26.197333a25.6 25.6 0 0 1-25.6-25.6v-972.8a25.6 25.6 0 0 1 25.6-25.6h971.605334a25.6 25.6 0 0 1 25.6 25.6V870.4a25.6 25.6 0 0 1-25.6 25.6z m-42.666667-930.133333a25.6 25.6 0 0 0-25.6-25.6H94.464a25.6 25.6 0 0 0-25.6 25.6V802.133333a25.6 25.6 0 0 0 25.6 25.6h835.242667a25.6 25.6 0 0 0 25.6-25.6zM0.597333 846.165333h1022.805334v-256H0.597333zM526.165333 216.32000000000005v49.578667H649.130667v-158.549334h-40.96l-6.144 36.864a148.48 148.48 0 0 0-31.573334-29.098666 111.957333 111.957333 0 0 0-60.245333-15.530667 126.634667 126.634667 0 0 0-93.866667 38.058667q-40.96 41.728-40.96 115.712 0 65.536 34.133334 107.605333 38.912 47.872 109.312 47.872 61.44 0 98.304-34.133333a86.101333 86.101333 0 0 0 30.72-64.426667h-61.44a42.666667 42.666667 0 0 1-15.530667 28.074667A66.816 66.816 0 0 1 522.069333 358.4a75.861333 75.861333 0 0 1-58.624-24.576q-25.6-28.16-25.6-80.896 0-55.125333 27.050667-80.554667a81.749333 81.749333 0 0 1 58.538667-20.48 68.266667 68.266667 0 0 1 35.669333 9.898667 79.189333 79.189333 0 0 1 35.584 54.869333z"  horiz-adv-x="1024" />

    
    <glyph glyph-name="legend-zhushanggelikaiguan" unicode="&#58994;" d="M527.274667 896h68.266666v-221.525333h-68.266666zM390.741333 740.949333h341.333334v-68.266666h-341.333334zM530.176 212.82133299999998h68.266667V-128h-68.266667zM598.442667 212.565333l-61.866667-28.757333L291.925333 707.5840000000001l61.866667 28.842667 244.650667-523.861334z"  horiz-adv-x="1024" />

    
    <glyph glyph-name="legend-zhushangzidonghuafuhekaiguan" unicode="&#58995;" d="M510.208 896h68.266667v-221.525333h-68.266667zM339.541333 740.864h409.6v-68.181333h-409.6zM513.109333 212.82133299999998h68.266667V-128h-68.266667zM581.376 212.565333l-61.866667-28.757333L274.858667 707.5840000000001l61.866666 28.842667 244.650667-523.861334zM424.789333 390.144l86.016-185.514667-123.818666-57.258666L300.885333 332.88533299999995l123.904 57.258667zM544.341333 655.786667a102.4 102.4 0 1 0-102.4-102.4 102.4 102.4 0 0 0 102.4 102.4m0 51.2a153.6 153.6 0 1 1 153.6-153.6 153.6 153.6 0 0 1-153.6 153.6z"  horiz-adv-x="1024" />

    
    <glyph glyph-name="legend-zhushangzidonghuaduanluqi" unicode="&#58996;" d="M516.821333 896h68.266667v-273.066667h-68.266667zM516.821333 213.33333300000004h68.266667v-341.333333h-68.266667zM278.6048 708.881067l61.866667 28.859733 244.736-524.629333-61.866667-28.8512zM745.344 553.6426670000001l-126.122667 72.789333 126.122667 72.874667-34.133333 59.136-160.256-92.586667-160.256 92.586667-34.133334-59.136 126.122667-72.874667-126.122667-72.789333 34.048-59.136L550.954667 587.093333 711.210667 494.506667l34.133333 59.136zM390.647467 147.76319999999998L304.580267 333.602133l123.895466 57.378134L514.542933 205.14133300000003z"  horiz-adv-x="1024" />

    
    <glyph glyph-name="legend-zhushangzidonghuaguzhangzhishiqi" unicode="&#58997;" d="M887.466667 384H512v-375.466667a375.466667 375.466667 0 0 1 375.466667 375.466667zM136.533333 384h375.466667V759.466667a375.466667 375.466667 0 0 1-375.466667-375.466667zM0 418.133333h1024v-68.266666H0zM512 759.466667a375.466667 375.466667 0 1 1 375.466667-375.466667 375.466667 375.466667 0 0 1-375.466667 375.466667z m0-682.666667a307.2 307.2 0 1 0 307.2 307.2 307.2 307.2 0 0 0-307.2-307.2zM477.866667 554.666667h68.266666v-682.666667h-68.266666zM512 722.688L562.090667 605.866667H461.909333L512 722.688M512 896L358.4 537.6h307.2L512 896z"  horiz-adv-x="1024" />

    
    <glyph glyph-name="legend-zhushangwugongbuchangxiang" unicode="&#58998;" d="M512 896a512 512 0 1 1 512-512A512 512 0 0 1 512 896z m0-955.733333a443.733333 443.733333 0 1 0 443.733333 443.733333 443.733333 443.733333 0 0 0-443.733333-443.733333zM412.416 254.976H349.013333l-40.448 67.157333a102.4 102.4 0 0 1-20.48 26.88 27.904 27.904 0 0 1-17.066666 5.973334h-17.066667v-100.010667h-54.528V513.194667H290.133333q92.16 0 92.16-70.058667a68.864 68.864 0 0 0-15.36-45.141333 81.322667 81.322667 0 0 0-42.666666-26.453334v-0.682666q17.92-5.973333 39.509333-39.338667zM254.378667 471.296v-74.325333H281.6a42.666667 42.666667 0 0 1 31.146667 11.264A37.205333 37.205333 0 0 1 324.266667 436.309333c0 23.381333-13.909333 34.986667-41.813334 34.986667zM492.714667 345.002667v-90.026667h-55.04V513.194667h88.917333Q622.933333 513.194667 622.933333 431.530667a78.08 78.08 0 0 0-29.013333-63.573334 106.837333 106.837333 0 0 0-72.789333-22.954666z m0 125.525333v-83.370667h23.808q48.469333 0 48.554666 42.154667t-48.042666 41.216zM846.250667 264.53333299999997a167.765333 167.765333 0 0 0-73.557334-13.824q-58.282667 0-92.586666 34.901334t-34.133334 93.098666a136.533333 136.533333 0 0 0 38.229334 100.010667 132.522667 132.522667 0 0 0 98.730666 38.912 177.408 177.408 0 0 0 63.402667-9.813333v-53.162667a115.370667 115.370667 0 0 1-59.733333 15.36 79.274667 79.274667 0 0 1-60.501334-24.149333 88.746667 88.746667 0 0 1-22.613333-63.232A86.272 86.272 0 0 1 725.333333 321.36533299999996a75.434667 75.434667 0 0 1 58.112-23.210666 122.026667 122.026667 0 0 1 62.890667 17.066666z"  horiz-adv-x="1024" />

    
    <glyph glyph-name="legend-zhushangjiliangzhuangzhi" unicode="&#58999;" d="M477.866667 896h68.266666v-341.333333h-68.266666zM512 503.466667A290.133333 290.133333 0 1 0 221.866667 213.33333300000004a290.133333 290.133333 0 0 0 290.133333 290.133334m0 51.2a341.333333 341.333333 0 1 1 341.333333-341.333334 341.333333 341.333333 0 0 1-341.333333 341.333334zM425.216 90.53866700000003l-69.546667 245.589333h54.784q17.066667-72.448 25.002667-108.373333 9.642667-42.666667 14.08-71.082667l34.901333 179.2h54.442667q19.882667-93.866667 27.050667-128c3.157333-15.786667 6.4-32.853333 9.557333-51.2 6.4 30.549333 11.349333 53.504 14.762667 69.034667q0 1.621333 25.6 110.421333h52.053333l-68.778667-245.589333h-49.322666q-17.066667 80.810667-25.6 123.050666c-4.266667 22.357333-8.533333 45.141333-12.629334 68.266667-2.048-11.690667-4.693333-25.6-7.850666-42.666667q-6.570667-33.536-10.666667-53.333333-10.24-47.872-20.224-95.744z"  horiz-adv-x="1024" />

    
    <glyph glyph-name="legend-DTU" unicode="&#59000;" d="M997.802667 896H26.197333a25.6 25.6 0 0 1-25.6-25.6v-972.8a25.6 25.6 0 0 1 25.6-25.6h971.605334a25.6 25.6 0 0 1 25.6 25.6V870.4a25.6 25.6 0 0 1-25.6 25.6z m-42.666667-930.133333a25.6 25.6 0 0 0-25.6-25.6H94.464a25.6 25.6 0 0 0-25.6 25.6V802.133333a25.6 25.6 0 0 0 25.6 25.6h835.242667a25.6 25.6 0 0 0 25.6-25.6zM0.597333 658.432h1022.805334v-68.266667H0.597333zM170.069333 107.349333V364.373333h113.664q58.026667 0 85.333334-42.666666a147.2 147.2 0 0 0 19.712-79.445334 167.168 167.168 0 0 0-21.504-87.637333 92.586667 92.586667 0 0 0-85.333334-46.933333zM222.464 319.914667v-168.106667h52.309333A49.322667 49.322667 0 0 1 320.597333 179.20000000000005a119.466667 119.466667 0 0 1 12.8 58.794667q0 50.005333-20.736 69.376a54.613333 54.613333 0 0 1-38.4 12.544zM538.197333 318.805333v-211.456h-53.845333V318.805333h-77.738667V364.373333h209.322667v-45.568zM853.930667 364.373333v-167.168q0-49.408-28.330667-73.728-26.88-22.869333-77.397333-22.954666a138.325333 138.325333 0 0 0-40.874667 5.717333 82.602667 82.602667 0 0 0-60.928 87.722667v170.666666h54.869333v-166.997333a52.48 52.48 0 0 1 12.885334-38.485333 44.202667 44.202667 0 0 1 32.938666-13.056 54.186667 54.186667 0 0 1 39.424 12.458666 49.493333 49.493333 0 0 1 12.544 36.522667V364.373333z"  horiz-adv-x="1024" />

    
    <glyph glyph-name="legend-FTU" unicode="&#59001;" d="M997.802667 896H26.197333a25.6 25.6 0 0 1-25.6-25.6v-972.8a25.6 25.6 0 0 1 25.6-25.6h971.605334a25.6 25.6 0 0 1 25.6 25.6V870.4a25.6 25.6 0 0 1-25.6 25.6z m-42.666667-930.133333a25.6 25.6 0 0 0-25.6-25.6H94.464a25.6 25.6 0 0 0-25.6 25.6V802.133333a25.6 25.6 0 0 0 25.6 25.6h835.242667a25.6 25.6 0 0 0 25.6-25.6zM0.597333 658.432h1022.805334v-68.266667H0.597333zM243.712 215.55200000000002v-108.202667h-53.76V364.373333h183.210667v-45.568H243.712v-57.685333h113.322667v-45.568zM518.314667 318.805333v-211.456h-53.76V318.805333h-77.824V364.373333h209.322666v-45.568zM834.048 364.373333v-167.168q0-49.408-28.330667-73.728-26.88-22.869333-77.397333-22.954666a138.325333 138.325333 0 0 0-40.874667 5.717333 82.602667 82.602667 0 0 0-60.928 87.722667v170.666666h54.869334v-166.997333a52.48 52.48 0 0 1 12.885333-38.485333 44.202667 44.202667 0 0 1 32.938667-13.056 54.186667 54.186667 0 0 1 39.424 12.458666 49.493333 49.493333 0 0 1 12.544 36.522667V364.373333z"  horiz-adv-x="1024" />

    
    <glyph glyph-name="legend-zhushangguzhangzhishiqi" unicode="&#59002;" d="M0 418.133333h1024v-68.266666H0zM512 759.466667a375.466667 375.466667 0 1 1 375.466667-375.466667 375.466667 375.466667 0 0 1-375.466667 375.466667z m0-682.666667a307.2 307.2 0 1 0 307.2 307.2 307.2 307.2 0 0 0-307.2-307.2zM477.866667 554.666667h68.266666v-682.666667h-68.266666zM512 722.688L562.090667 605.866667H461.909333L512 722.688M512 896L358.4 537.6h307.2L512 896z"  horiz-adv-x="1024" />

    
    </font>
</defs>
</svg>
